<svg width="33" height="33" viewBox="0 0 33 33" fill="none" xmlns="http://www.w3.org/2000/svg">
<path d="M19.25 17.875C19.25 19.3938 18.0188 20.625 16.5 20.625C14.9812 20.625 13.75 19.3938 13.75 17.875C13.75 16.3562 14.9812 15.125 16.5 15.125C18.0188 15.125 19.25 16.3562 19.25 17.875Z" fill="#303548"/>
<path fill-rule="evenodd" clip-rule="evenodd" d="M2.75 11.4707C2.75 9.57788 4.03822 7.92795 5.87454 7.46886L8.25 6.875L10.1836 3.97457C10.6937 3.20952 11.5523 2.75 12.4718 2.75H20.5282C21.4477 2.75 22.3064 3.20952 22.8163 3.97457L24.75 6.875L27.1255 7.46886C28.9618 7.92795 30.25 9.57788 30.25 11.4707V26.125C30.25 28.4032 28.4032 30.25 26.125 30.25H6.875C4.59683 30.25 2.75 28.4032 2.75 26.125V11.4707ZM26.125 12.375C26.125 13.1344 25.5094 13.75 24.75 13.75C23.9906 13.75 23.375 13.1344 23.375 12.375C23.375 11.6156 23.9906 11 24.75 11C25.5094 11 26.125 11.6156 26.125 12.375ZM22 17.875C22 20.9125 19.5375 23.375 16.5 23.375C13.4624 23.375 11 20.9125 11 17.875C11 14.8375 13.4624 12.375 16.5 12.375C19.5375 12.375 22 14.8375 22 17.875Z" fill="#303548"/>
<path d="M19.25 17.875C19.25 19.3938 18.0188 20.625 16.5 20.625C14.9812 20.625 13.75 19.3938 13.75 17.875C13.75 16.3562 14.9812 15.125 16.5 15.125C18.0188 15.125 19.25 16.3562 19.25 17.875Z" fill="#303548"/>
</svg>
