<svg width="24" height="24" viewBox="0 0 24 24" fill="none" xmlns="http://www.w3.org/2000/svg">
<path fill-rule="evenodd" clip-rule="evenodd" d="M10 20C10 21.6569 8.65685 23 7 23C5.34315 23 4 21.6569 4 20C4 18.3431 5.34315 17 7 17C8.65685 17 10 18.3431 10 20ZM8 20C8 20.5523 7.55228 21 7 21C6.44772 21 6 20.5523 6 20C6 19.4477 6.44772 19 7 19C7.55228 19 8 19.4477 8 20Z" fill="#9290F4"/>
<path fill-rule="evenodd" clip-rule="evenodd" d="M20 20C20 21.6569 18.6569 23 17 23C15.3431 23 14 21.6569 14 20C14 18.3431 15.3431 17 17 17C18.6569 17 20 18.3431 20 20ZM18 20C18 20.5523 17.5523 21 17 21C16.4477 21 16 20.5523 16 20C16 19.4477 16.4477 19 17 19C17.5523 19 18 19.4477 18 20Z" fill="#9290F4"/>
<path fill-rule="evenodd" clip-rule="evenodd" d="M2.10555 2.553C2.35254 2.05902 2.95321 1.8588 3.44719 2.10579L4.4507 2.60754C5.37996 3.07217 6.00267 3.98453 6.09674 5.01922L6.14458 5.54548C6.16799 5.80302 6.38392 6.00021 6.64252 6.00021H19.8355C21.581 6.00021 22.7892 7.74365 22.1763 9.37802L20.423 14.0535C19.9839 15.2245 18.8645 16.0002 17.614 16.0002H7.8264C6.27479 16.0002 4.9792 14.817 4.83872 13.2718L4.10495 5.20029C4.07359 4.85539 3.86602 4.55127 3.55627 4.3964L2.55276 3.89464C2.05878 3.64765 1.85856 3.04698 2.10555 2.553ZM6.91525 8.00021C6.62124 8.00021 6.39069 8.25267 6.4173 8.54548L6.83051 13.0907C6.87734 13.6058 7.3092 14.0002 7.8264 14.0002H17.614C18.0308 14.0002 18.4039 13.7416 18.5503 13.3513L20.3036 8.67578C20.4262 8.3489 20.1846 8.00021 19.8355 8.00021H6.91525Z" fill="#9290F4"/>
</svg>
