<svg width="33" height="33" viewBox="0 0 33 33" fill="none" xmlns="http://www.w3.org/2000/svg">
<path fill-rule="evenodd" clip-rule="evenodd" d="M30.25 16.5C30.25 24.0938 24.0938 30.25 16.5 30.25C8.90608 30.25 2.75 24.0938 2.75 16.5C2.75 8.90608 8.90608 2.75 16.5 2.75C24.0938 2.75 30.25 8.90608 30.25 16.5ZM20.625 16.5C20.625 18.7782 18.7782 20.625 16.5 20.625C14.2218 20.625 12.375 18.7782 12.375 16.5C12.375 14.2218 14.2218 12.375 16.5 12.375C18.7782 12.375 20.625 14.2218 20.625 16.5ZM11 6.875C10.2406 6.875 9.625 7.49061 9.625 8.25C9.625 9.00939 10.2406 9.625 11 9.625H13.75C14.5094 9.625 15.125 9.00939 15.125 8.25C15.125 7.49061 14.5094 6.875 13.75 6.875H11ZM5.64513 13.135C5.98474 12.4558 6.81066 12.1805 7.48989 12.5201L10.2399 13.8951C10.9191 14.2347 11.1944 15.0606 10.8548 15.7399C10.5152 16.4191 9.68927 16.6944 9.01005 16.3548L6.26005 14.9798C5.58082 14.6402 5.30552 13.8142 5.64513 13.135ZM18.8473 27.0973C19.3842 26.5603 19.3842 25.6897 18.8473 25.1527C18.3103 24.6158 17.4397 24.6158 16.9027 25.1527L15.5277 26.5277C14.9908 27.0647 14.9908 27.9353 15.5277 28.4723C16.0647 29.0092 16.9353 29.0092 17.4723 28.4723L18.8473 27.0973ZM21.0277 21.0277C21.5647 20.4908 22.4353 20.4908 22.9723 21.0277L24.3473 22.4027C24.8842 22.9397 24.8842 23.8103 24.3473 24.3473C23.8103 24.8842 22.9397 24.8842 22.4027 24.3473L21.0277 22.9723C20.4908 22.4353 20.4908 21.5647 21.0277 21.0277ZM11 22C11 21.2406 10.3844 20.625 9.625 20.625C8.86561 20.625 8.25 21.2406 8.25 22V23.375C8.25 24.1344 8.86561 24.75 9.625 24.75C10.3844 24.75 11 24.1344 11 23.375V22ZM23.375 17.875C23.375 17.1156 23.9906 16.5 24.75 16.5H26.125C26.8844 16.5 27.5 17.1156 27.5 17.875C27.5 18.6344 26.8844 19.25 26.125 19.25H24.75C23.9906 19.25 23.375 18.6344 23.375 17.875ZM23.3045 8.68486C23.5447 7.96443 23.1553 7.18574 22.4349 6.94559C21.7144 6.70546 20.9358 7.09481 20.6955 7.81523L20.008 9.87773C19.768 10.5981 20.1574 11.3768 20.8777 11.617C21.5981 11.8571 22.3769 11.4678 22.617 10.7473L23.3045 8.68486Z" fill="#303548"/>
</svg>
