<svg width="19" height="19" viewBox="0 0 19 19" fill="none" xmlns="http://www.w3.org/2000/svg">
<path d="M10.2915 4.75L9.82474 3.97205C9.36573 3.20699 8.60541 2.66661 7.72038 2.5538C6.99718 2.4616 6.07142 2.375 5.14567 2.375C4.49961 2.375 3.85354 2.41718 3.27633 2.474C2.00409 2.59924 1.04442 3.59117 0.946647 4.8658C0.863831 5.94549 0.791504 7.4696 0.791504 9.5C0.791504 10.9412 0.843983 12.2251 0.910721 13.2751C1.02232 15.0307 2.38761 16.3824 4.14395 16.4836C5.47788 16.5605 7.26317 16.625 9.49984 16.625C11.7365 16.625 13.5218 16.5605 14.8557 16.4836C16.6121 16.3824 17.9773 15.0307 18.0889 13.2751C18.1557 12.2251 18.2082 10.9412 18.2082 9.5C18.2082 8.6758 18.1605 7.89921 18.0982 7.23651C17.9787 5.96373 16.9945 4.9795 15.7216 4.85993C15.059 4.79767 14.2824 4.75 13.4582 4.75H10.2915Z" fill="#6F8BB5"/>
</svg>
