<svg width="33" height="33" viewBox="0 0 33 33" fill="none" xmlns="http://www.w3.org/2000/svg">
<path fill-rule="evenodd" clip-rule="evenodd" d="M22 9.625V14.7533C22 14.9967 22.0646 15.2358 22.1872 15.4461L28.0062 25.4215C29.6104 28.1715 27.6269 31.625 24.4432 31.625H8.55674C5.37311 31.625 3.38952 28.1715 4.99366 25.4215L10.8127 15.4461C10.9353 15.2358 11 14.9967 11 14.7533V9.625C10.2406 9.62493 9.62509 9.00936 9.62509 8.25C9.62509 7.49064 10.2406 6.87507 11 6.875C10.9999 6.875 11 6.875 11 6.875H22C22.7594 6.875 23.3751 7.49062 23.3751 8.25C23.3751 9.00939 22.7594 9.625 22 9.625ZM19.8119 16.8318L25.6309 26.8071C26.1657 27.7238 25.5044 28.875 24.4432 28.875H8.55674C7.49553 28.875 6.83433 27.7238 7.36906 26.8071L13.1881 16.8318C13.5561 16.2009 13.75 15.4836 13.75 14.7533V9.625H19.25V14.7533C19.25 15.4836 19.4438 16.2009 19.8119 16.8318Z" fill="#303548"/>
<path d="M26.0104 22H6.98956L4.99366 25.4215C3.38952 28.1715 5.37311 31.625 8.55674 31.625H24.4432C27.6269 31.625 29.6104 28.1715 28.0062 25.4215L26.0104 22Z" fill="#303548"/>
<path d="M19.25 4.125C20.0094 4.125 20.625 3.50939 20.625 2.75C20.625 1.99062 20.0094 1.375 19.25 1.375C18.4906 1.375 17.875 1.99062 17.875 2.75C17.875 3.50939 18.4906 4.125 19.25 4.125Z" fill="#303548"/>
<path d="M13.75 5.5C14.5094 5.5 15.125 4.88439 15.125 4.125C15.125 3.36562 14.5094 2.75 13.75 2.75C12.9906 2.75 12.375 3.36562 12.375 4.125C12.375 4.88439 12.9906 5.5 13.75 5.5Z" fill="#303548"/>
</svg>
