<svg width="84" height="33" viewBox="0 0 84 33" fill="none" xmlns="http://www.w3.org/2000/svg">
<g clip-path="url(#clip0)">
<path d="M39.7294 16.1215V25.7948H36.6273V1.9059H44.8545C45.8365 1.88561 46.8129 2.05791 47.7273 2.41287C48.6416 2.76783 49.4759 3.29841 50.1819 3.974C50.8951 4.60857 51.4626 5.38681 51.8465 6.2564C52.2303 7.126 52.4215 8.0668 52.4073 9.01559C52.4277 9.96945 52.2394 10.9164 51.8553 11.7915C51.4712 12.6667 50.9004 13.4493 50.1819 14.0858C48.7433 15.4429 46.9675 16.1208 44.8545 16.1196H39.7294V16.1215ZM39.7294 4.84699V13.1861H44.9316C45.5019 13.2028 46.0694 13.1016 46.5979 12.8889C47.1265 12.6762 47.6043 12.3568 48.0009 11.951C48.3954 11.5715 48.7089 11.1177 48.9231 10.6163C49.1372 10.1149 49.2475 9.5761 49.2475 9.03179C49.2475 8.48748 49.1372 7.94869 48.9231 7.44729C48.7089 6.94589 48.3954 6.49205 48.0009 6.11262C47.6093 5.69826 47.1331 5.37096 46.6039 5.15244C46.0748 4.93391 45.5047 4.82914 44.9316 4.84508H39.7294V4.84699Z" fill="#6F8BB5"/>
<path d="M59.5555 8.9165C61.8483 8.9165 63.6581 9.52264 64.985 10.7349C66.3119 11.9472 66.9747 13.6093 66.9734 15.7212V25.7949H64.0062V23.5266H63.8714C62.5869 25.3946 60.8785 26.3286 58.7462 26.3286C56.9261 26.3286 55.4034 25.7949 54.1779 24.7275C53.5899 24.2375 53.1197 23.624 52.8017 22.9315C52.4837 22.2391 52.3259 21.4851 52.3398 20.7247C52.3398 19.0334 52.9859 17.6883 54.2781 16.6895C55.5703 15.6907 57.2954 15.1901 59.4534 15.1875C61.2953 15.1875 62.8123 15.5211 64.0043 16.1882V15.4868C64.0078 14.9683 63.8947 14.4556 63.6731 13.9859C63.4514 13.5161 63.1269 13.1009 62.723 12.7706C61.9027 12.0384 60.8336 11.6389 59.7289 11.6517C57.9961 11.6517 56.6249 12.3748 55.6153 13.8209L52.8832 12.1187C54.386 9.98391 56.6101 8.9165 59.5555 8.9165ZM55.5421 20.7914C55.54 21.182 55.6323 21.5674 55.8113 21.9155C55.9902 22.2636 56.2507 22.5644 56.571 22.7928C57.257 23.3267 58.1086 23.6095 58.9813 23.5933C60.2903 23.5912 61.5451 23.0757 62.4706 22.16C63.4982 21.2031 64.012 20.0804 64.012 18.7919C63.0448 18.0295 61.6961 17.6483 59.9659 17.6483C58.7058 17.6483 57.6551 17.9488 56.8137 18.5498C55.964 19.1598 55.5421 19.9013 55.5421 20.7914Z" fill="#6F8BB5"/>
<path d="M84.0058 9.4502L73.6477 32.9998H70.4454L74.2893 24.7598L67.4783 9.4502H70.8501L75.7729 21.1917H75.8403L80.6283 9.4502H84.0058Z" fill="#6F8BB5"/>
<path d="M27.194 14.0366C27.1952 13.1014 27.1153 12.1678 26.9551 11.2461H13.8726V16.5317H21.3656C21.2123 17.3758 20.8878 18.1806 20.4116 18.8973C19.9354 19.6141 19.3175 20.228 18.595 20.7022V24.1331H23.0669C25.6854 21.7448 27.194 18.2128 27.194 14.0366Z" fill="#6F8BB5"/>
<path d="M13.8725 27.4478C17.6161 27.4478 20.7683 26.2317 23.0669 24.135L18.5949 20.7041C17.3503 21.5389 15.7472 22.0155 13.8725 22.0155C10.2541 22.0155 7.18285 19.6024 6.08461 16.3506H1.47778V19.8864C2.63241 22.1593 4.40291 24.0701 6.59162 25.4053C8.78032 26.7405 11.3011 27.4477 13.8725 27.4478Z" fill="#6F8BB5"/>
<path d="M6.08462 16.3505C5.50402 14.6465 5.50402 12.8013 6.08462 11.0973V7.56152H1.47779C0.506471 9.47362 0.000610352 11.5839 0.000610352 13.7239C0.000610352 15.8638 0.506471 17.9742 1.47779 19.8862L6.08462 16.3505Z" fill="#6F8BB5"/>
<path d="M13.8725 5.43226C15.8508 5.40028 17.7625 6.13975 19.1941 7.49083L23.1536 3.57383C20.6429 1.24093 17.3168 -0.0398734 13.8725 -7.61535e-05C11.3011 3.97842e-05 8.78032 0.707185 6.59162 2.04241C4.40291 3.37764 2.63241 5.28839 1.47778 7.56135L6.08461 11.0971C7.18285 7.84536 10.2541 5.43226 13.8725 5.43226Z" fill="#6F8BB5"/>
</g>
<defs>
<clipPath id="clip0">
<rect width="84" height="33" fill="white"/>
</clipPath>
</defs>
</svg>
