<svg width="153" height="37" viewBox="0 0 153 37" fill="none" xmlns="http://www.w3.org/2000/svg">
<path d="M8.56742 19.3229L4.38388 28.7582H1.32764L5.92453 18.6696C4.84732 18.1168 3.98306 17.3127 3.3192 16.2448C2.65535 15.1769 2.32968 13.7321 2.32968 11.8852C2.32968 10.6037 2.51757 9.47299 2.89333 8.49302C3.2691 7.51306 3.78265 6.70898 4.43398 6.06824C5.08531 5.42749 5.84937 4.93751 6.71364 4.62342C7.5779 4.29676 8.5048 4.146 9.45674 4.146H13.4023V28.7708H10.7594V19.3355H8.56742V19.3229ZM10.7594 6.34464H9.35653C8.83046 6.34464 8.31691 6.44515 7.81589 6.6336C7.31487 6.83462 6.86394 7.13615 6.47565 7.56331C6.08736 7.99048 5.77422 8.55584 5.53623 9.25941C5.29825 9.96297 5.17299 10.8299 5.17299 11.8727C5.17299 12.8652 5.28572 13.6944 5.49866 14.3603C5.71159 15.0261 6.0122 15.5664 6.38797 15.981C6.76374 16.3956 7.21466 16.6845 7.72821 16.8604C8.24176 17.0363 8.78036 17.1243 9.35653 17.1243H10.7594V6.34464Z" fill="#6F8BB5"/>
<path d="M26.1409 11.4075V28.758H23.498V20.981H19.5148V28.758H16.8344V11.4075H19.5148V18.7824H23.498V11.4075H26.1409ZM39.9065 32.1627H37.5016V28.758H30.0864V32.1627H27.6815V26.5467H28.7462C29.1345 25.6296 29.4476 24.6119 29.6731 23.4938C29.8985 22.3756 30.0739 21.2323 30.1991 20.0513C30.3244 18.8703 30.3996 17.6642 30.4371 16.433C30.4747 15.2018 30.4872 14.0208 30.4872 12.8649V11.4075H38.5161V26.5593H39.8939V32.1627H39.9065ZM35.8858 13.6062H32.9047V13.9203C32.9047 14.8374 32.8921 15.8425 32.8546 16.923C32.817 18.016 32.7418 19.1216 32.6291 20.2398C32.5164 21.358 32.3535 22.4636 32.1531 23.5566C31.9527 24.6496 31.6646 25.6422 31.2889 26.5593H35.8858V13.6062ZM51.5427 27.5895C50.9916 28.0293 50.3653 28.3685 49.6514 28.6198C48.9374 28.871 48.1483 28.9967 47.284 28.9967C45.4929 28.9967 44.09 28.3057 43.0629 26.9111C42.0358 25.5165 41.5223 23.4812 41.5223 20.8052C41.5223 19.4106 41.6225 18.1165 41.8104 16.9481C42.0108 15.7797 42.3114 14.762 42.7373 13.8951C43.1631 13.0282 43.7017 12.3624 44.3656 11.8849C45.0294 11.4075 45.8186 11.1562 46.7329 11.1562C47.4469 11.1562 48.0982 11.2944 48.6869 11.5834C49.2756 11.8724 49.7892 12.3372 50.2025 12.978C50.6158 13.6187 50.929 14.4479 51.167 15.4782C51.3924 16.4958 51.5052 17.7396 51.5052 19.2096V20.6921H44.2904C44.2904 22.6646 44.5535 24.1596 45.0921 25.1647C45.6307 26.1698 46.4323 26.6849 47.5095 26.6849C48.261 26.6849 48.9374 26.5593 49.5136 26.2829C50.1023 26.0191 50.5657 25.7552 50.9039 25.504L51.5427 27.5895ZM46.7329 13.3675C45.9062 13.3675 45.3301 13.8323 44.9793 14.762C44.6286 15.6917 44.4157 16.9355 44.328 18.4934H48.7621C48.7621 17.7647 48.7245 17.0737 48.6619 16.4456C48.5992 15.8174 48.4865 15.2646 48.3362 14.8123C48.1859 14.3474 47.9855 13.9956 47.7224 13.7444C47.4594 13.4931 47.1212 13.3675 46.7329 13.3675ZM56.9287 20.1141V28.758H54.2483V11.4075H56.9287V19.4357L61.0872 11.4075H63.8053L59.509 19.5739L64.419 28.7705H61.5006L56.9287 20.1141ZM70.6944 28.9967C68.8406 28.9967 67.3876 28.2554 66.3354 26.7729C65.2833 25.2904 64.7572 23.054 64.7572 20.0765C64.7572 18.7196 64.8825 17.4883 65.1581 16.3953C65.4211 15.2897 65.8094 14.36 66.3229 13.5936C66.8365 12.8272 67.4753 12.2242 68.2393 11.797C69.0034 11.3698 69.8927 11.1562 70.8948 11.1562C71.6714 11.1562 72.2976 11.2442 72.7861 11.4201C73.2621 11.596 73.7005 11.8096 74.0888 12.0608L73.713 14.6113C73.3498 14.2846 72.9114 13.9956 72.4229 13.7444C71.9344 13.4931 71.4083 13.3675 70.8572 13.3675C69.8927 13.3675 69.1036 13.9077 68.4899 15.0007C67.8761 16.0812 67.563 17.7396 67.563 19.9508C67.563 22.1369 67.826 23.833 68.3395 25.0265C68.8531 26.2201 69.6673 26.8106 70.757 26.8106C71.4208 26.8106 71.997 26.6975 72.473 26.4714C72.949 26.2452 73.3498 25.9939 73.6754 25.705L74.2892 27.7026C73.8257 28.0921 73.3122 28.4062 72.7486 28.6449C72.1849 28.8836 71.496 28.9967 70.6944 28.9967Z" fill="#6F8BB5"/>
<path d="M92.5014 28.7583H81.9924L81.7544 32.8541H80.4142V27.3889H81.1407C81.7294 26.8864 82.1928 25.9818 82.5185 24.7003C82.8442 23.4188 83.0947 21.886 83.27 20.1145C83.4579 18.2803 83.5832 16.0188 83.6458 13.3427C83.7084 10.6667 83.7711 7.60114 83.8212 4.15869H92.4012V27.4015H94.0796V32.8792H92.7394L92.5014 28.7583ZM90.6727 5.51557H85.3493C85.2992 8.66905 85.2365 11.4456 85.1489 13.8202C85.0612 16.2072 84.9485 18.2928 84.8107 20.0894C84.6478 21.9614 84.4224 23.4942 84.1468 24.7003C83.8587 25.9064 83.483 26.7984 83.032 27.3763H90.6852V5.51557H90.6727Z" fill="#6F8BB5"/>
<path d="M97.3738 20.3531C97.4239 22.7528 97.7496 24.5745 98.3633 25.8309C98.9771 27.0873 99.9165 27.7154 101.182 27.7154C101.758 27.7154 102.259 27.6275 102.697 27.439C103.136 27.2506 103.499 27.0244 103.799 26.7732C104.138 26.5219 104.438 26.1952 104.689 25.8309L105.202 27.1375C104.927 27.527 104.601 27.8662 104.213 28.13C103.875 28.3813 103.449 28.6075 102.948 28.7959C102.447 28.9844 101.845 29.0849 101.157 29.0849C99.3278 29.0849 97.975 28.2934 97.1108 26.7104C96.2465 25.1273 95.8081 22.9161 95.8081 20.0642C95.8081 18.6445 95.9334 17.3755 96.1839 16.2574C96.4344 15.1392 96.7851 14.1969 97.236 13.418C97.6869 12.639 98.213 12.0485 98.8268 11.6465C99.4405 11.2445 100.117 11.0435 100.856 11.0435C101.607 11.0435 102.284 11.2445 102.885 11.6339C103.474 12.0234 103.975 12.6139 104.363 13.3929C104.751 14.1718 105.027 15.1392 105.19 16.3076C105.353 17.4635 105.365 18.8204 105.227 20.3531H97.3738ZM100.843 12.438C99.929 12.438 99.1399 13.0034 98.4886 14.1341C97.8372 15.2648 97.474 16.9107 97.4114 19.0842H103.699C103.837 16.7725 103.612 15.089 103.035 14.0336C102.459 12.9783 101.708 12.438 100.843 12.438Z" fill="#6F8BB5"/>
<path d="M115.774 20.4661H109.874V28.7707H108.259V11.4077H109.874V19.0841H115.774V11.4077H117.39V28.7581H115.774V20.4661Z" fill="#6F8BB5"/>
<path d="M121.198 11.4077H122.813V17.8403H124.078C125.732 17.8403 127.047 18.2926 128.024 19.1846C129.013 20.0766 129.502 21.4335 129.502 23.2427C129.502 25.077 128.988 26.459 127.961 27.3761C126.934 28.2933 125.607 28.7581 123.978 28.7581H121.198V11.4077ZM122.813 19.1218V27.4892H123.84C125.055 27.4892 126.032 27.1626 126.796 26.5092C127.561 25.8559 127.924 24.788 127.924 23.2929C127.924 21.823 127.586 20.7676 126.897 20.1018C126.208 19.4485 125.243 19.1218 124.016 19.1218H122.813Z" fill="#6F8BB5"/>
<path d="M133.861 12.7772V28.7581H132.283V11.4077H139.598V12.7897H133.861V12.7772Z" fill="#6F8BB5"/>
<path d="M150.132 16.6718C150.132 16.2069 150.144 15.7923 150.169 15.4154C150.194 15.0385 150.232 14.6616 150.269 14.2972H150.169C150.056 14.6867 149.919 15.0636 149.756 15.4154C149.593 15.7672 149.418 16.1441 149.242 16.5336L143.618 28.758H142.24V11.4076H143.756V23.4561C143.756 23.921 143.744 24.3356 143.719 24.7251C143.693 25.1145 143.656 25.504 143.618 25.8935H143.719C143.831 25.504 143.969 25.1145 144.132 24.7376C144.295 24.3607 144.458 23.9712 144.645 23.5818L150.269 11.395H151.672V28.7454H150.132V16.6718Z" fill="#6F8BB5"/>
</svg>
