<svg width="48" height="48" viewBox="0 0 48 48" fill="none" xmlns="http://www.w3.org/2000/svg">
<path d="M46.9602 31.7446C46.9196 31.6693 46.8611 31.6128 46.7848 31.5722C46.7115 31.5316 46.6361 31.5107 46.5578 31.5107C46.4785 31.5107 46.4032 31.5316 46.3299 31.5722C46.2565 31.6128 46.1961 31.6693 46.1554 31.7446C46.1148 31.817 46.094 31.8943 46.094 31.9746C46.094 32.0549 46.1148 32.1322 46.1554 32.2045C46.1981 32.2779 46.2555 32.3373 46.3279 32.378C46.4012 32.4186 46.4785 32.4394 46.5598 32.4394C46.6381 32.4394 46.7154 32.4186 46.7888 32.378C46.8611 32.3373 46.9186 32.2779 46.9602 32.2045C47.0009 32.1322 47.0217 32.0539 47.0217 31.9746C47.0217 31.8943 47.0019 31.817 46.9602 31.7446ZM46.7164 32.147H46.6153L46.5539 31.9944H46.4934V32.147H46.4121V31.7585H46.5747C46.5945 31.7585 46.6351 31.7595 46.6758 31.7803C46.6966 31.8001 46.7164 31.8388 46.7164 31.8775C46.7164 31.9201 46.6966 31.9607 46.656 31.9786L46.7164 32.147Z" fill="#6F8BB5"/>
<path d="M46.5955 31.838C46.5955 31.8301 46.5549 31.8301 46.534 31.8301H46.4934V31.9302H46.5549C46.5549 31.9302 46.5757 31.9302 46.5955 31.9223C46.6163 31.9133 46.6163 31.8945 46.6163 31.8767C46.6163 31.8618 46.6163 31.8459 46.5955 31.838Z" fill="#6F8BB5"/>
<path d="M33.6337 9.62988C29.9239 9.63087 26.5442 11.0373 23.997 13.3446C21.4479 11.0383 18.0701 9.63286 14.3653 9.63286C14.3346 9.63286 14.3039 9.63286 14.2731 9.63286C6.38579 9.68439 0 16.1009 0 23.9992C0 31.9301 6.43634 38.3645 14.3653 38.3645C18.0701 38.3645 21.4469 36.9591 23.996 34.6527C23.4638 34.172 22.9821 33.6398 22.5272 33.0828H25.4946C25.0466 33.6319 24.558 34.1453 24.0357 34.621H24.0327C24.0337 34.623 24.0337 34.623 24.0337 34.623C24.0218 34.6339 24.0089 34.6418 23.997 34.6537C26.5452 36.964 29.9289 38.3704 33.6396 38.3694C41.5746 38.3674 48.002 31.9331 48 24.0001C48 23.9972 48 23.9952 48 23.9932C47.998 16.0603 41.5647 9.62988 33.6337 9.62988ZM22.6907 14.8293H25.4203C25.8247 15.3159 26.1983 15.8303 26.5353 16.3675H21.6659C21.9771 15.8531 22.322 15.3268 22.6907 14.8293ZM20.8155 17.877H27.3619C27.5968 18.3755 27.8029 18.8889 27.9813 19.4162H20.0395C20.1178 19.2675 20.3953 18.6689 20.8155 17.877ZM13.5764 27.4443H11.8716L12.8866 22.122L10.5525 27.4443H9.01028L8.72583 22.1577L7.71092 27.4443H6.16775L7.48792 20.5243H10.1471L10.269 24.8099L12.1571 20.5243H14.9184L13.5764 27.4443ZM19.6064 24.4541L19.2406 26.4532L19.1802 26.811L19.1395 27.0964L19.1187 27.2887L19.0989 27.4413H17.6786L17.7193 26.8595C17.2941 27.3234 16.7044 27.5385 15.9333 27.5385C15.0195 27.5385 14.3901 26.9111 14.3901 26.0032C14.3901 24.6335 15.4863 23.8327 17.3734 23.8327C17.5557 23.8327 17.7995 23.8495 18.0632 23.8763C18.1038 23.6909 18.1246 23.6136 18.1246 23.5105C18.1246 23.1389 17.8194 23.0001 17.0285 23.0001C16.5408 23.0001 15.9927 23.0586 15.628 23.1557L15.3842 23.2172L15.2425 23.2538L15.4655 21.9862C16.3178 21.7701 16.8659 21.6898 17.4953 21.6898C18.9562 21.6898 19.7283 22.2617 19.7283 23.3401C19.7283 23.6196 19.7084 23.8287 19.6064 24.4541ZM22.998 21.677C24.3974 21.677 25.2914 22.4728 25.2914 23.7207C25.2914 24.1379 25.23 24.5413 25.0863 25.1122H21.7184C21.6976 25.1984 21.6976 25.2371 21.6976 25.2906C21.6976 25.9418 22.2051 26.2738 23.1793 26.2738C23.7889 26.2738 24.337 26.1648 24.9455 25.917L24.6621 27.3264C24.0932 27.479 23.5253 27.5533 22.9365 27.5533C21.0286 27.5533 20.0335 26.6881 20.0335 25.0299C20.0335 23.1002 21.2923 21.6789 22.998 21.677ZM26.5531 31.605H21.4558C21.1466 31.1095 20.8562 30.601 20.6074 30.0668H27.3896C27.1409 30.599 26.8624 31.1105 26.5531 31.605ZM29.6761 23.1081C29.2292 23.0566 28.7831 23.0259 28.4372 23.0259C27.8882 23.0259 27.6047 23.1805 27.6047 23.4828C27.6047 23.7464 27.686 23.8099 28.3966 24.0953C29.2678 24.4372 29.6147 24.8902 29.6147 25.6623C29.6147 26.9468 28.7822 27.5404 26.9545 27.5404C26.7325 27.5404 26.4282 27.5236 26.0219 27.4939C25.8187 27.479 25.6572 27.4631 25.5541 27.4423L25.2498 27.3868L25.1685 27.371L25.4123 26.0726C25.9604 26.2272 26.4292 26.2946 26.9555 26.2946C27.6255 26.2946 27.9298 26.138 27.9298 25.7871C27.9298 25.5294 27.8277 25.4462 27.1379 25.1657C26.2251 24.798 25.8187 24.3064 25.8187 23.5968C25.8187 22.5571 26.4887 21.6918 28.3976 21.6918C28.804 21.6918 29.474 21.7414 29.919 21.8028L29.6761 23.1081ZM32.3373 26.1846C32.5187 26.1846 32.6604 26.1667 32.7823 26.1301L32.5593 27.3789C32.0925 27.5067 31.7278 27.5632 31.3412 27.5632C30.4681 27.5632 30.0012 27.1242 30.0012 26.3263C30.0012 26.1677 30.0211 25.9992 30.0419 25.8208L30.144 25.2668L30.2242 24.8218L31.0161 20.5243H32.7001L32.4572 21.8167H33.3294L33.0856 23.1864H32.2124L31.7664 25.5344C31.7456 25.6365 31.7456 25.7138 31.7456 25.7663C31.7456 26.0587 31.929 26.1826 32.3373 26.1846ZM36.4891 23.4005C35.6774 23.4005 35.4147 24.0051 34.8052 27.4473H33.0995L34.1352 21.8177H35.6784L35.5158 22.672C36.0441 22.007 36.4485 21.7572 36.9976 21.7572C37.059 21.7572 37.1205 21.7632 37.1809 21.7711C37.1809 21.7741 37.2434 21.785 37.3256 21.8048C37.3454 21.8108 37.3653 21.8108 37.508 21.8663L36.9014 23.457L36.6982 23.4154C36.617 23.4055 36.5565 23.4005 36.4891 23.4005ZM39.5011 27.5949C37.5684 27.5949 36.7993 26.4274 36.7993 24.9992C36.7993 23.0061 38.1185 21.6532 40.1483 21.6532C41.9165 21.6532 42.8501 22.7652 42.8501 24.1924C42.8501 24.5423 42.8501 24.5661 42.8095 24.8931C42.5449 26.7654 41.2455 27.5969 39.5011 27.5949ZM42.9919 27.4443C42.748 27.4443 42.5449 27.2471 42.5449 27.0032C42.5449 26.7634 42.748 26.5662 42.9919 26.5662C43.2357 26.5662 43.4389 26.7634 43.4389 27.0032C43.4389 27.2481 43.2357 27.4443 42.9919 27.4443Z" fill="#6F8BB5"/>
<path d="M42.9919 26.6699C42.8095 26.6699 42.647 26.8196 42.647 27.0029C42.647 27.1913 42.8095 27.3399 42.9919 27.3399C43.1752 27.3399 43.317 27.1893 43.317 27.0029C43.317 26.8206 43.1752 26.6699 42.9919 26.6699ZM43.1534 27.1992H43.0514L42.9899 27.0475H42.9285V27.1992H42.8472V26.8097H43.0097C43.0315 26.8097 43.0722 26.8117 43.1128 26.8325C43.1326 26.8513 43.1534 26.8899 43.1534 26.9296C43.1534 26.9712 43.1326 27.0128 43.092 27.0307L43.1534 27.1992Z" fill="#6F8BB5"/>
<path d="M43.0315 26.8893C43.0325 26.8804 42.9919 26.8804 42.9721 26.8804H42.9294V26.9805H42.9909C42.9909 26.9805 43.0117 26.9805 43.0315 26.9725C43.0523 26.9636 43.0523 26.9448 43.0523 26.9279C43.0523 26.9131 43.0523 26.8972 43.0315 26.8893Z" fill="#6F8BB5"/>
<path d="M22.977 22.9663C22.429 22.9663 22.0434 23.3241 21.8809 23.9763L23.7689 23.9802C23.7689 23.8573 23.7689 23.7622 23.7689 23.6888C23.7689 23.2319 23.4845 22.9663 22.977 22.9663Z" fill="#6F8BB5"/>
<path d="M17.4745 24.916C16.5221 24.915 16.0344 25.2034 16.0344 25.7723C16.0344 26.1222 16.2584 26.3462 16.643 26.3462C17.3338 26.3462 17.8204 25.7694 17.8611 24.9368C17.6777 24.918 17.5964 24.916 17.4745 24.916Z" fill="#6F8BB5"/>
<path d="M40.1087 23.0308C39.2355 23.0308 38.7083 24.0566 38.7083 24.9605C38.7083 25.7256 39.073 26.239 39.6825 26.2271C40.0492 26.2271 40.8392 25.7227 40.9819 24.8475C41.0215 24.6423 41.0423 24.4173 41.0423 24.1725C41.0423 23.5858 40.7995 23.0288 40.1087 23.0308Z" fill="#6F8BB5"/>
</svg>
