<svg width="48" height="48" viewBox="0 0 48 48" fill="none" xmlns="http://www.w3.org/2000/svg">
<path d="M32.5631 8.53125C29.3976 8.53125 26.4518 9.48962 24 11.1302C21.5479 9.48962 18.6024 8.53125 15.4369 8.53125C6.92505 8.53125 0 15.4556 0 23.9667C0 32.4778 6.92505 39.4021 15.4369 39.4021C18.6024 39.4021 21.5482 38.4437 24 36.8031C26.4521 38.4437 29.3976 39.4021 32.5631 39.4021C41.075 39.4021 48 32.4778 48 23.9667C48 15.4556 41.075 8.53125 32.5631 8.53125V8.53125ZM32.5631 36.5896C27.9664 36.5896 23.9359 34.1199 21.7284 30.4384H23.3507C24.1274 30.4384 24.757 29.8088 24.757 29.0321C24.757 28.2557 24.1274 27.6259 23.3507 27.6259H20.4803C20.3068 27.0538 20.1724 26.4653 20.0808 25.8622H25.6011C26.3774 25.8622 27.0073 25.2327 27.0073 24.4559C27.0073 23.6796 26.3774 23.0497 25.6011 23.0497H19.972C20.0153 22.4495 20.1013 21.8606 20.2262 21.2864H23.3507C24.1274 21.2864 24.757 20.6565 24.757 19.8801C24.757 19.1034 24.1274 18.4739 23.3507 18.4739H21.1981C23.2445 14.2577 27.5698 11.3438 32.5631 11.3438C39.524 11.3438 45.1875 17.0065 45.1875 23.9667C45.1875 30.9269 39.524 36.5896 32.5631 36.5896Z" fill="#6F8BB5"/>
</svg>
