<svg width="48" height="48" viewBox="0 0 48 48" fill="none" xmlns="http://www.w3.org/2000/svg">
<path d="M31.329 6.02588H31.2712H31.2107H31.1529H31.0951H31.0374H30.9796H30.9218H30.8641H30.8063H30.7514H30.6936H30.633H30.5753H30.5175H30.4612H30.4034H30.3456H30.2879H30.2301H30.1723H30.1174H30.0596H30.0019H29.9441H29.8863H29.8286H29.7708H29.713H29.6553H29.5961H29.5383H29.4806H29.4228H29.3651H29.3073H29.2495H29.1889H29.1312H29.0734H29.0157H28.9607H28.9029H28.8452H28.7902H28.7297H28.6719H28.6141H28.5564H28.4986H28.4408H28.3859H28.3281H28.2704H28.2126H28.1548H28.0971H28.0365H27.9787H27.921H27.8632H27.8054H27.7477H27.6899H27.6322H27.573H27.5152H27.4546H27.3969H27.3391H27.2813H27.2236H27.1658H27.1081H27.0503H26.9925H26.9348H26.8742H26.8164H26.7587H26.7009H26.6431H26.5938H26.5361H26.4783H26.4205H26.3628H26.305H26.2486H26.1909H26.1331H26.0739H26.0162H25.9584H25.9007H25.8429H25.7851H25.7274H25.6696H25.6118H25.5541H25.4963H25.4385H25.3808H25.323H25.2667H25.2089H25.1497H25.092H25.0328H24.975H24.9173H24.8595H24.806H24.7482H24.6904H24.6327H24.5735H24.5157H24.458H24.3988H24.341H24.2847H24.2283H24.1706H24.1128H24.055H23.9973H23.9395H23.8818H23.824H23.7662H23.7085H23.6507H23.5929H23.5352H23.4774H23.4182H23.3605H23.3027H23.2449H23.1858H23.128H23.0731H23.0167H22.9589H22.9012H22.842H22.7842H22.7265H22.6687H22.611H22.58H22.5546C22.5349 6.02588 22.5166 6.02588 22.4968 6.02588C22.4771 6.02588 22.4588 6.02588 22.4391 6.02588C22.4194 6.03011 22.401 6.03011 22.3813 6.03151L22.3221 6.03292C22.3038 6.03292 22.2841 6.03433 22.2644 6.03574C22.2447 6.03574 22.2263 6.03856 22.2066 6.03856C22.1883 6.03997 22.1686 6.04138 22.1488 6.04279C22.1291 6.04419 22.1108 6.04419 22.0911 6.04419L22.0319 6.04983C22.0136 6.05124 21.9939 6.05265 21.9742 6.05406C21.9544 6.05547 21.9347 6.05828 21.9164 6.0611L21.8586 6.06674L21.8009 6.07378C21.7811 6.0766 21.7628 6.07942 21.7431 6.08223C21.7234 6.08505 21.7051 6.08787 21.6853 6.08928C21.6656 6.0921 21.6473 6.09491 21.6276 6.09914L21.5698 6.11041L21.512 6.12027C21.4923 6.1245 21.474 6.12732 21.4529 6.13154C21.4346 6.13577 21.4148 6.13859 21.3951 6.14281C21.3754 6.14563 21.3571 6.14986 21.3373 6.15409L21.2796 6.16677C21.2599 6.17099 21.2415 6.17522 21.2218 6.17945C21.2021 6.18367 21.1838 6.18931 21.1641 6.19353C21.1443 6.19776 21.126 6.20199 21.1063 6.20762C21.0866 6.21185 21.0683 6.21748 21.0485 6.22171L20.9908 6.23862C20.971 6.24425 20.9527 6.24848 20.933 6.25412C20.9133 6.25975 20.895 6.26539 20.8752 6.27102C20.8555 6.27666 20.8372 6.28229 20.8175 6.28934C20.7992 6.29356 20.7794 6.30061 20.7597 6.30624L20.7005 6.32597C20.6808 6.3316 20.6625 6.33865 20.6428 6.34569C20.6231 6.35274 20.6047 6.35837 20.5836 6.36682C20.5653 6.37387 20.5456 6.3795 20.5258 6.38796C20.5061 6.39359 20.4878 6.40205 20.4681 6.40909C20.4498 6.41473 20.4286 6.42459 20.4103 6.43163C20.3892 6.43868 20.3709 6.44713 20.3511 6.45417L20.2934 6.47812C20.2737 6.48658 20.2553 6.49362 20.2356 6.50207C20.2173 6.51053 20.1976 6.51898 20.1778 6.52743C20.1595 6.53589 20.1398 6.54434 20.1201 6.55279C20.1004 6.56125 20.082 6.57111 20.0623 6.57956C20.0426 6.58802 20.0229 6.59647 20.0032 6.60774C19.9834 6.61619 19.9651 6.62606 19.9454 6.63592L19.8876 6.66409L19.8299 6.69227C19.8101 6.70213 19.7904 6.712 19.7721 6.72186C19.7524 6.73172 19.7341 6.74158 19.7129 6.75144C19.6946 6.76271 19.6749 6.77399 19.6552 6.78385C19.6354 6.79371 19.6171 6.80498 19.5974 6.81343C19.5791 6.8247 19.5594 6.83598 19.5396 6.84725C19.5199 6.85852 19.5002 6.86979 19.4805 6.88106C19.4607 6.89515 19.4424 6.90642 19.4227 6.91769C19.403 6.92896 19.3847 6.94164 19.3649 6.95432C19.3466 6.96559 19.3269 6.97968 19.3072 6.99095C19.2874 7.00222 19.2677 7.01631 19.2494 7.02758C19.2297 7.04026 19.2114 7.05435 19.1916 7.06703C19.1719 7.07971 19.1536 7.0938 19.1325 7.10648C19.1142 7.11916 19.0944 7.13606 19.0747 7.14733C19.0564 7.16142 19.0367 7.17692 19.0169 7.1896C18.9972 7.20369 18.9789 7.21919 18.9592 7.23328C18.9395 7.24736 18.9211 7.26286 18.9014 7.27695C18.8803 7.29527 18.862 7.30935 18.8422 7.32626C18.8225 7.34035 18.8042 7.35585 18.7845 7.37275C18.7648 7.38966 18.7464 7.40234 18.7267 7.42065C18.7084 7.43615 18.6887 7.45306 18.669 7.46996C18.6492 7.48687 18.6309 7.50237 18.6112 7.52068C18.5915 7.539 18.5717 7.5545 18.5534 7.57281C18.5337 7.58972 18.5154 7.60803 18.4943 7.62635C18.4759 7.64466 18.4562 7.66157 18.4365 7.67989C18.4168 7.69961 18.3985 7.71792 18.3787 7.73765C18.359 7.75596 18.3407 7.77428 18.321 7.79541C18.3012 7.81373 18.2829 7.83486 18.2632 7.85458C18.2435 7.87431 18.2252 7.89544 18.2054 7.91517C18.1857 7.9363 18.166 7.95602 18.1477 7.97716C18.128 7.99829 18.1096 8.01942 18.0899 8.04055C18.0702 8.0631 18.0519 8.08423 18.0321 8.10677C18.0124 8.12931 17.9941 8.15185 17.973 8.1744C17.9533 8.19694 17.9349 8.22089 17.9152 8.24484C17.8955 8.26879 17.8758 8.29274 17.856 8.31669C17.8377 8.34205 17.818 8.366 17.7983 8.39277C17.7786 8.41813 17.7602 8.4449 17.7405 8.47026C17.7208 8.49703 17.7011 8.52239 17.6828 8.54915C17.663 8.57733 17.6447 8.60551 17.625 8.63228C17.6053 8.66186 17.5855 8.69004 17.5672 8.71963C17.5475 8.74921 17.5292 8.7788 17.5095 8.80839C17.4897 8.83938 17.47 8.87038 17.4517 8.90137C17.432 8.93237 17.4137 8.96618 17.3939 8.99858C17.3742 9.03239 17.3559 9.06621 17.3362 9.10002C17.3164 9.13524 17.2981 9.17046 17.2784 9.20568C17.2587 9.24232 17.239 9.27895 17.2192 9.31699C17.1995 9.35502 17.1812 9.39447 17.1615 9.43392C17.1417 9.47478 17.122 9.51564 17.1023 9.5579C17.0826 9.60158 17.0643 9.64525 17.0445 9.69033C17.0248 9.73683 17.0051 9.78332 16.9868 9.83263C16.967 9.88335 16.9473 9.93407 16.929 9.9862C16.9079 10.0426 16.8896 10.0989 16.8712 10.1539C16.8501 10.2158 16.8318 10.2778 16.8135 10.3398C16.7938 10.4103 16.774 10.4807 16.7557 10.5526C16.7346 10.6357 16.7149 10.7188 16.698 10.8033C16.6162 11.1964 16.574 11.6036 16.574 12.0206V19.8652C16.6148 19.8313 16.6557 19.7961 16.698 19.7623C16.7163 19.7468 16.736 19.7313 16.7557 19.7158C16.7754 19.7017 16.7938 19.6862 16.8135 19.6707C16.8332 19.6552 16.8515 19.6411 16.8712 19.6271C16.891 19.6116 16.9093 19.5975 16.929 19.5834C16.9473 19.5693 16.967 19.5552 16.9868 19.5425C17.0051 19.5298 17.0248 19.5158 17.0445 19.5017L17.1023 19.4622C17.122 19.4495 17.1403 19.4354 17.1615 19.4242L17.2192 19.3861C17.239 19.3735 17.2573 19.3608 17.2784 19.3495C17.2967 19.3368 17.3164 19.3256 17.3362 19.3143C17.3559 19.3016 17.3742 19.2903 17.3939 19.2791C17.4137 19.2678 17.432 19.2565 17.4517 19.2452C17.4714 19.234 17.4897 19.2213 17.5095 19.2114C17.5292 19.2002 17.5475 19.1889 17.5672 19.179L17.625 19.148L17.6828 19.117C17.7025 19.1072 17.7208 19.0959 17.7405 19.086C17.7602 19.0762 17.7786 19.0663 17.7983 19.0565L17.856 19.0269L17.9152 18.9973L17.973 18.9677C17.9927 18.9593 18.011 18.9494 18.0321 18.9409L18.0899 18.9142L18.1477 18.8874L18.2054 18.862L18.2632 18.8367L18.321 18.8127L18.3787 18.7888L18.4365 18.7648L18.4943 18.7423L18.5534 18.7197C18.5717 18.7127 18.5915 18.7042 18.6112 18.6972L18.669 18.6747C18.6873 18.6676 18.707 18.6606 18.7267 18.6535C18.7464 18.6465 18.7648 18.6394 18.7845 18.6324L18.8422 18.6127L18.9014 18.5915C18.9197 18.5859 18.9395 18.5789 18.9592 18.5718L19.0169 18.5521C19.0353 18.5465 19.055 18.5394 19.0747 18.5338L19.1325 18.5155L19.1916 18.4971L19.2494 18.4802L19.3072 18.4633L19.3649 18.4464L19.4227 18.4295L19.4805 18.4126L19.5396 18.3971L19.5974 18.3816L19.6678 18.3647L19.7256 18.352L19.7848 18.3379L19.8425 18.3239L19.9003 18.3098L19.9581 18.2957L20.0158 18.283L20.075 18.2703L20.1328 18.2576L20.1905 18.245L20.2483 18.2323L20.3061 18.221L20.3638 18.2097L20.423 18.1985L20.4808 18.1872L20.5385 18.1759L20.5963 18.1661L20.6555 18.1562L20.7132 18.1463L20.7724 18.1365L20.8302 18.1266L20.8879 18.1168L20.9457 18.1097L21.0034 18.0998L21.0612 18.0914L21.119 18.0843L21.1767 18.0759L21.2345 18.0688L21.2923 18.0618L21.35 18.0534L21.4078 18.0463L21.4656 18.0393L21.5247 18.0322L21.5825 18.0266L21.6403 18.0195L21.698 18.0139L21.7558 18.0069L21.8135 18.0026L21.8713 17.997L21.9291 17.9914L21.9868 17.9857L22.0446 17.9815L22.1038 17.9773L22.1615 17.973L22.2193 17.9702L22.2771 17.966L22.3348 17.9618L22.394 17.959L22.4518 17.9547L22.5095 17.9519L22.5673 17.9491L22.625 17.9463L22.6828 17.9435L22.7406 17.9406L22.7983 17.9378L22.8561 17.9364L22.9153 17.9336L22.973 17.9322L23.0308 17.9308L23.0886 17.9294L23.1463 17.928H23.2041L23.2633 17.9266L23.321 17.9251L23.3788 17.9237H23.4366L23.4957 17.9223H23.5535H23.6113H23.669H23.7268H23.7845H23.8423H23.9001H23.9578H24.0156H24.0734H24.1311L24.1889 17.9237H24.2466L24.3044 17.9251L24.3636 17.9266H24.4213L24.4805 17.928H24.5383L24.596 17.9294L24.6552 17.9308L24.713 17.9322L24.7707 17.9336L24.8285 17.935L24.8863 17.9364L24.944 17.9392L25.0018 17.9421H25.0314L25.0596 17.9435L25.1201 17.9463L25.1779 17.9477L25.2357 17.9505L25.2934 17.9547L25.3512 17.9575L25.409 17.9604L25.4667 17.9646L25.5245 17.9688L25.5823 17.973L25.64 17.9773L25.6978 17.9815L25.7555 17.9871L25.8133 17.9928L25.8711 17.997L25.9288 18.0026L25.988 18.0069L26.0458 18.0125L26.1049 18.0181L26.1627 18.0238L26.2205 18.0294L26.2782 18.0364L26.3374 18.0421L26.3952 18.0491L26.4529 18.0548L26.5107 18.0618L26.5685 18.0688L26.6262 18.0759L26.6854 18.0829L26.7432 18.09L26.8009 18.097L26.8587 18.1041L26.9164 18.1125L26.977 18.1196L27.0348 18.128L27.0926 18.1365L27.1503 18.1449L27.2081 18.1548L27.2658 18.1618L27.3236 18.1703L27.3814 18.1787L27.4391 18.1886L27.4969 18.1971L27.5575 18.2055L27.6152 18.214L27.6716 18.2238L27.7294 18.2337L27.7857 18.2435L27.8463 18.2534L27.9041 18.2633L27.9618 18.2745L28.0196 18.2844L28.0774 18.2943L28.1351 18.3055L28.1929 18.3154L28.2506 18.3253L28.3084 18.3365L28.3662 18.3464L28.4239 18.3577L28.4817 18.3703L28.5395 18.3816L28.5972 18.3929L28.655 18.4042L28.7156 18.4154L28.7733 18.4267L28.8311 18.4394L28.8889 18.4507L28.9466 18.4619L29.0044 18.4746L29.065 18.4859L29.1227 18.4986L29.1805 18.5112L29.2383 18.5239L29.296 18.5366L29.3538 18.5493L29.4115 18.562L29.4693 18.5746L29.5271 18.5887L29.5877 18.6028L29.6454 18.6155L29.7032 18.6296L29.7609 18.6437V21.1796L29.7032 21.15L29.6454 21.1219L29.5877 21.0923L29.5271 21.0641L29.4693 21.0359L29.4115 21.0063L29.3538 20.9796L29.296 20.9514L29.2383 20.9246L29.1805 20.8978L29.1227 20.8711L29.065 20.8443L29.0044 20.819L28.9466 20.7936L28.8889 20.7682L28.8311 20.7429L28.7733 20.7175L28.7156 20.6936L28.655 20.6696L28.5972 20.6457L28.5395 20.6217L28.4817 20.5978L28.4239 20.5752L28.3662 20.5527L28.3084 20.5301L28.2506 20.509L28.1929 20.4879L28.1351 20.4667L28.0774 20.447L28.0196 20.4259L27.9618 20.4062L27.9041 20.3878L27.8463 20.3681L27.7857 20.3498L27.7294 20.3315L27.6716 20.3132L27.6152 20.2949L27.5575 20.2765L27.4969 20.2596L27.4391 20.2427L27.3814 20.2258L27.3236 20.2089L27.2658 20.1934L27.2081 20.1779L27.1503 20.1624L27.0926 20.1483L27.0348 20.1342L26.977 20.1202L26.9164 20.1061L26.8587 20.092L26.8009 20.0793L26.7432 20.0666L26.6854 20.0539L26.6262 20.0427L26.5685 20.0314L26.5107 20.0201L26.4529 20.0089L26.3952 19.999L26.3374 19.9877L26.2782 19.9779L26.2205 19.968L26.1627 19.9567L26.1049 19.9483L26.0458 19.9398L25.988 19.9314L25.9288 19.9229L25.8711 19.9145L25.8133 19.9074L25.7555 19.899L25.6978 19.8933L25.64 19.8863L25.5823 19.8806L25.5245 19.8736L25.4385 19.8877L25.3808 19.8821L25.323 19.8778L25.2667 19.8722L25.2089 19.868L25.1737 19.8652H25.1511L25.0934 19.8609L25.0342 19.8581L24.9764 19.8553L24.9187 19.8525L24.8609 19.8497L24.8032 19.8482L24.7454 19.8468L24.6876 19.8454H24.6299L24.5707 19.844C24.551 19.844 24.5326 19.844 24.5129 19.844H24.4552L24.396 19.8454H24.3382L24.2791 19.8468C24.2607 19.8468 24.241 19.8468 24.2213 19.8482C24.2016 19.8497 24.1832 19.8497 24.1635 19.8511L24.1058 19.8539L24.048 19.8567L23.9902 19.8609L23.9325 19.8652C23.9142 19.8666 23.8944 19.868 23.8747 19.8694C23.855 19.8708 23.8367 19.8722 23.8169 19.875L23.7592 19.8806L23.7014 19.8877L23.6437 19.8933L23.5859 19.9018L23.5281 19.9116L23.4704 19.9201C23.4506 19.9229 23.4323 19.9257 23.4112 19.93C23.3929 19.9328 23.3732 19.9356 23.3534 19.9384C23.3337 19.9426 23.3154 19.9455 23.2957 19.9497C23.2759 19.9539 23.2562 19.9553 23.2379 19.961C23.2168 19.9638 23.1999 19.968 23.1787 19.9722C23.159 19.9765 23.1407 19.9793 23.121 19.9835C23.1012 19.9891 23.0829 19.9934 23.0632 19.9976L23.0054 20.0117C22.9857 20.0159 22.9674 20.0215 22.9477 20.0258C22.928 20.03 22.9082 20.0356 22.8899 20.0399C22.8702 20.0455 22.8519 20.0511 22.8307 20.0568L22.773 20.0737C22.7547 20.0779 22.7349 20.0849 22.7152 20.0906C22.6955 20.0976 22.6772 20.1018 22.6575 20.1089C22.6377 20.1145 22.6194 20.1216 22.5997 20.1272C22.58 20.1328 22.5616 20.1399 22.5419 20.1469C22.5222 20.154 22.5039 20.161 22.4842 20.1695C22.4644 20.1751 22.4461 20.1821 22.4264 20.1906C22.4067 20.1991 22.3884 20.2061 22.3686 20.2131C22.3489 20.2202 22.3306 20.2286 22.3095 20.2357C22.2897 20.2441 22.2714 20.2526 22.2517 20.261C22.232 20.2695 22.2137 20.2779 22.1939 20.2864C22.1756 20.2949 22.1559 20.3047 22.1362 20.3132C22.1164 20.3216 22.0981 20.3315 22.0784 20.3413C22.0587 20.3512 22.0404 20.3597 22.0192 20.3695C21.9995 20.3794 21.9812 20.3892 21.9615 20.3991C21.9417 20.409 21.922 20.4188 21.9037 20.4287C21.884 20.4386 21.8643 20.4498 21.8459 20.4611C21.8262 20.4724 21.8079 20.4836 21.7882 20.4935C21.7685 20.5048 21.7501 20.5175 21.7304 20.5287C21.7107 20.54 21.6924 20.5527 21.6727 20.5654C21.6529 20.578 21.6332 20.5907 21.6149 20.602C21.5952 20.6147 21.5769 20.6288 21.5571 20.6414C21.5374 20.6555 21.5191 20.6682 21.4994 20.6823C21.4796 20.6964 21.4599 20.7105 21.4402 20.7246C21.4205 20.7386 21.4022 20.7541 21.3824 20.7696C21.3627 20.7851 21.343 20.7992 21.3247 20.8161C21.3049 20.833 21.2852 20.8471 21.2669 20.864C21.2472 20.8809 21.2289 20.8964 21.2091 20.9148C21.1894 20.9317 21.1711 20.95 21.1514 20.9669C21.1316 20.9852 21.1133 21.0035 21.0936 21.0232C21.0739 21.0416 21.0542 21.0613 21.0358 21.0796C21.0161 21.1007 20.9978 21.1204 20.9781 21.1416C20.9584 21.1627 20.94 21.1838 20.9203 21.205C20.9006 21.2261 20.8823 21.2487 20.8626 21.2726C20.8428 21.2951 20.8245 21.3191 20.8048 21.343C20.7851 21.3684 20.7668 21.3924 20.747 21.4177C20.7273 21.4445 20.7076 21.4713 20.6879 21.4966C20.6681 21.5262 20.6498 21.553 20.6301 21.5826C20.6104 21.6121 20.5906 21.6417 20.5709 21.6713C20.5512 21.7009 20.5329 21.7347 20.5132 21.7685C20.4934 21.8023 20.4737 21.8376 20.4554 21.8728C20.4357 21.9108 20.4159 21.9475 20.3976 21.9869C20.3765 22.0263 20.3582 22.0686 20.3385 22.1109C20.3187 22.156 20.299 22.1996 20.2807 22.2461C20.2596 22.2969 20.2412 22.349 20.2229 22.4011C20.2032 22.4589 20.1835 22.518 20.1652 22.5772C20.1454 22.6462 20.1243 22.7167 20.1074 22.7885C20.0849 22.8787 20.0665 22.9689 20.0496 23.0619C20.0243 23.1999 20.0046 23.3394 19.9905 23.4859C19.975 23.6536 19.9665 23.8269 19.9665 24.0058C19.9665 24.1819 19.975 24.358 19.9905 24.5229C20.0046 24.6694 20.0229 24.8089 20.0496 24.9469C20.0665 25.0371 20.0849 25.1315 20.1074 25.2188C20.1243 25.2935 20.144 25.3625 20.1652 25.4302C20.1835 25.4907 20.2032 25.5485 20.2229 25.6063C20.2412 25.6584 20.2596 25.7105 20.2807 25.7598C20.299 25.8063 20.3187 25.8486 20.3385 25.8979C20.3568 25.9359 20.3765 25.981 20.3976 26.0219C20.4145 26.0571 20.4343 26.0966 20.4554 26.1346C20.4737 26.167 20.4934 26.2036 20.5132 26.236C20.5315 26.267 20.5512 26.3022 20.5709 26.3347C20.5906 26.3628 20.609 26.3952 20.6301 26.422C20.6484 26.4516 20.6681 26.4769 20.6879 26.5065C20.7076 26.5333 20.7259 26.5587 20.747 26.5882C20.7653 26.6136 20.7851 26.6376 20.8048 26.6629C20.8245 26.6883 20.8428 26.7094 20.8626 26.7348C20.8823 26.7573 20.9006 26.7784 20.9203 26.801C20.94 26.8263 20.9584 26.8447 20.9781 26.8644C20.9978 26.8869 21.0161 26.9052 21.0358 26.9278C21.0542 26.9475 21.0739 26.963 21.0936 26.9855C21.1133 27.0053 21.1316 27.0208 21.1514 27.0405C21.1711 27.0574 21.1894 27.0757 21.2091 27.0926C21.2289 27.1095 21.2472 27.125 21.2669 27.1419C21.2852 27.1617 21.3049 27.1715 21.3247 27.1912C21.343 27.2053 21.3627 27.2208 21.3824 27.2349C21.4007 27.2518 21.4205 27.2645 21.4402 27.2786C21.4599 27.2927 21.4782 27.3082 21.4994 27.3209C21.5177 27.3364 21.5374 27.3504 21.5571 27.3603C21.5769 27.373 21.5952 27.3871 21.6149 27.3983C21.6332 27.4124 21.6529 27.4251 21.6727 27.4336C21.6924 27.442 21.7107 27.4589 21.7304 27.4688C21.7501 27.4772 21.7685 27.4941 21.7882 27.5026C21.8079 27.5111 21.8262 27.5266 21.8459 27.5336C21.8643 27.5463 21.884 27.5575 21.9037 27.566C21.922 27.5745 21.9417 27.5857 21.9615 27.5942C21.9812 27.6069 21.9995 27.6181 22.0192 27.6238C22.039 27.635 22.0587 27.6435 22.0784 27.6519C22.0981 27.6646 22.1164 27.6731 22.1362 27.6815C22.1545 27.69 22.1742 27.7013 22.1939 27.7097C22.2137 27.7182 22.232 27.7266 22.2517 27.7351C22.2714 27.7463 22.2897 27.7548 22.3095 27.7632C22.3292 27.7689 22.3475 27.7787 22.3686 27.7872C22.3869 27.7928 22.4067 27.8027 22.4264 27.8111C22.4461 27.8168 22.4644 27.8252 22.4842 27.8337C22.5039 27.8393 22.5222 27.8478 22.5419 27.8534C22.5616 27.859 22.58 27.8675 22.5997 27.8759C22.6194 27.8816 22.6377 27.8872 22.6575 27.8943C22.6772 27.9027 22.6955 27.9084 22.7152 27.914C22.7335 27.921 22.7533 27.9267 22.773 27.9323C22.7927 27.9379 22.8124 27.9436 22.8307 27.9492C22.8505 27.9548 22.8688 27.9605 22.8899 27.9661C22.9082 27.9689 22.928 27.9746 22.9477 27.9802C22.9674 27.983 22.9857 27.9915 23.0054 27.9943L23.0632 28.0084C23.0829 28.0154 23.1012 28.0182 23.121 28.0239C23.1407 28.0295 23.159 28.0323 23.1787 28.0352C23.1985 28.0422 23.2168 28.045 23.2379 28.0478C23.2562 28.0535 23.2759 28.0563 23.2957 28.0591C23.3154 28.0647 23.3337 28.0676 23.3534 28.0704C23.3732 28.0732 23.3915 28.0788 23.4112 28.0816C23.4309 28.0845 23.4492 28.0873 23.4704 28.0901C23.4887 28.0929 23.5084 28.0957 23.5281 28.0986L23.5859 28.107L23.6437 28.1183L23.7014 28.1239L23.7592 28.1295L23.8169 28.1366C23.8367 28.1394 23.855 28.1422 23.8747 28.1422C23.8944 28.145 23.9142 28.145 23.9325 28.1479L23.9902 28.1507L24.048 28.1563L24.1058 28.1591L24.1635 28.1634C24.1832 28.1634 24.2016 28.1634 24.2213 28.1662C24.241 28.1662 24.2593 28.1662 24.2791 28.1662L24.3382 28.169H24.396H24.4552H24.5129C24.5326 28.169 24.551 28.169 24.5707 28.169H24.6299H24.6876L24.7454 28.1662H24.8032L24.8609 28.1634L24.9187 28.1591L24.9764 28.1563L25.0342 28.1535L25.0934 28.1507L25.1511 28.1479L25.1737 28.145L25.2089 28.1422L25.2667 28.1394L25.323 28.1324L25.3808 28.1267L25.4385 28.1211L25.4963 28.1155L25.5541 28.107L25.6118 28.1014L25.6696 28.0957L25.7274 28.0873L25.7851 28.0788L25.8429 28.0704L25.9007 28.0619L25.9612 28.0506L26.019 28.0394L26.0768 28.0309L26.1345 28.0225L26.1923 28.014L26.2501 28.0027L26.3106 27.9915L26.3684 27.983L26.4262 27.9703L26.4839 27.9591L26.5417 27.9436L26.5995 27.9323L26.6572 27.9182L26.715 27.9069L26.7727 27.8929L26.8305 27.8788L26.8883 27.8675L26.9489 27.852L27.0066 27.8379L27.0644 27.8224L27.1221 27.8055L27.1799 27.7886L27.2377 27.7745L27.2954 27.7576L27.3532 27.7407L27.411 27.7224L27.4687 27.7041L27.5293 27.6872L27.5871 27.6703L27.6448 27.6505L27.7026 27.6308L27.7604 27.6125L27.8181 27.5914L27.8759 27.5716L27.9336 27.5519L27.9914 27.5322L28.0492 27.5096L28.1069 27.4885L28.1647 27.4674L28.2225 27.4448L28.2802 27.4223L28.338 27.3998L28.3958 27.3758L28.4535 27.3533L28.5113 27.3293L28.569 27.304L28.6268 27.2814L28.6874 27.2546L28.7452 27.2279L28.8029 27.2053L28.8607 27.1772L28.9184 27.1518L28.9762 27.125L29.0368 27.0983L29.0946 27.0701L29.1523 27.0419L29.2101 27.0137L29.2678 26.9855L29.3256 26.9574L29.3834 26.9292L29.4411 26.8996L29.4989 26.8714L29.5595 26.8433L29.6172 26.8137L29.675 26.7841L29.7328 26.7545V29.289L29.675 29.3045L29.6172 29.3186L29.5595 29.3327L29.4989 29.3468L29.4411 29.3609L29.3834 29.375L29.3256 29.3891L29.2678 29.4017L29.2101 29.4158L29.1523 29.4285L29.0748 29.475L29.0171 29.4891L28.9593 29.5004L28.9015 29.5116L28.8438 29.5271L28.786 29.5384L28.7254 29.5511L28.6677 29.5624L28.6099 29.5764L28.5521 29.5877L28.4944 29.599L28.4366 29.6074L28.3788 29.6187L28.3211 29.63L28.2633 29.6427L28.2056 29.6539L28.1478 29.6666L28.09 29.6751L28.0323 29.6863L27.9745 29.6976L27.9167 29.7061L27.859 29.7173L27.8012 29.7272L27.7406 29.7385L27.6829 29.7469L27.6251 29.7596L27.5673 29.7681L27.5096 29.7723L27.4518 29.7836L27.3941 29.792L27.3363 29.8005L27.2785 29.8117L27.2208 29.8216L27.1602 29.83L27.1024 29.8385L27.0447 29.8484L26.9869 29.8709L26.9291 29.8794L26.8714 29.8878L26.8136 29.8963L26.7544 29.9047L26.6967 29.9103L26.6389 29.9188L26.5797 29.9273L26.522 29.9329L26.4642 29.9413L26.4064 29.947L26.3487 29.954L26.2909 29.9625L26.2317 29.9681L26.174 29.9737L26.1176 29.9808L26.0599 29.9864L25.9993 29.9921L25.9415 29.9977L25.8837 30.0033L25.826 30.009L25.7696 30.0118L25.7119 30.0146L25.6541 30.0202L25.5963 30.0259L25.5386 30.0231L25.4808 30.0287L25.4231 30.0315L25.3653 30.0371L25.3075 30.04L25.2498 30.0456L25.192 30.0484L25.1314 30.0512L25.0737 30.0541L25.0159 30.0569H24.9863H24.9581L24.9004 30.0597H24.8426L24.7848 30.0625L24.7271 30.0653L24.6679 30.0696H24.6101L24.551 30.0724H24.4932L24.4354 30.0752H24.3763L24.3185 30.078H24.2593H24.2016H24.1438H24.086L24.0283 30.0808H23.9705H23.9127H23.855H23.7972H23.7395H23.6817H23.6507H23.5929H23.5352H23.4774H23.4182L23.3605 30.078H23.3027H23.2449L23.1858 30.0752H23.128L23.0702 30.0724H23.0125L22.9547 30.0696L22.897 30.0653L22.8378 30.0625H22.78L22.7223 30.0597L22.6645 30.0569L22.6067 30.0541L22.5532 30.0625L22.4954 30.0597L22.4377 30.0569L22.3799 30.0541L22.3207 30.0484L22.263 30.0456L22.2052 30.04L22.1474 30.0371L22.0897 30.0315L22.0305 30.0287L21.9727 30.0231L21.915 30.0174L21.8572 30.0146L21.7995 30.009L21.7417 30.0033L21.6839 29.9949L21.6262 29.9892L21.5684 29.9836L21.5106 29.978L21.4515 29.9681L21.3937 29.9625L21.3359 29.954L21.2782 29.9484L21.2204 29.9385L21.1626 29.9301L21.1049 29.9216L21.0471 29.9188L20.9894 29.9075L20.9316 29.8991L20.8738 29.8906L20.8161 29.8794L20.7583 29.8709L20.6991 29.8596L20.6414 29.8498L20.5822 29.8385L20.5244 29.83L20.4667 29.8202L20.4089 29.8089L20.3497 29.7976L20.292 29.7864L20.2342 29.7751L20.1764 29.7638L20.1187 29.7497L20.0609 29.7357L20.0017 29.73L19.944 29.7159L19.8862 29.7032L19.8285 29.6892L19.7707 29.6723L19.7115 29.6582L19.6538 29.6427L19.596 29.6286L19.5382 29.6103L19.4791 29.5962L19.4213 29.5779L19.3635 29.561L19.3058 29.544L19.248 29.5271L19.1902 29.5074L19.1311 29.4933L19.0733 29.4764C19.055 29.468 19.0353 29.4623 19.0155 29.4567C18.9958 29.4482 18.9775 29.4426 18.9578 29.4356L18.9169 29.406L18.8577 29.3863C18.838 29.3778 18.8197 29.3722 18.8 29.3637C18.7803 29.3581 18.7619 29.3496 18.7422 29.3412L18.6845 29.3214C18.6647 29.3116 18.6464 29.3031 18.6267 29.2975L18.5689 29.2735L18.5098 29.2482L18.452 29.2256L18.3942 29.1989L18.3365 29.1721L18.2787 29.1467L18.2209 29.1214L18.1632 29.0932L18.1054 29.0664L18.0476 29.0369C18.0279 29.0284 18.0096 29.0185 17.9885 29.0087L17.9307 28.9805L17.8715 28.9509L17.8138 28.9227C17.7941 28.9115 17.7757 28.9002 17.756 28.8932C17.7363 28.8819 17.718 28.8706 17.6982 28.8636L17.6405 28.8326L17.5827 28.803L17.525 28.7776C17.5052 28.7664 17.4869 28.7551 17.4672 28.7452C17.4475 28.7339 17.4292 28.7199 17.4094 28.7142L17.3517 28.6804C17.3319 28.6677 17.3136 28.6536 17.2939 28.6452C17.2742 28.6311 17.2545 28.6198 17.2347 28.61L17.177 28.5719C17.1572 28.5607 17.1389 28.5438 17.1178 28.5353L17.06 28.4987C17.0403 28.4832 17.0206 28.4691 17.0023 28.4578C16.9825 28.4437 16.9628 28.4282 16.9445 28.417C16.9248 28.4029 16.9065 28.3888 16.8867 28.3761C16.867 28.3634 16.8487 28.3465 16.829 28.3324C16.8093 28.3183 16.7909 28.3028 16.7712 28.2887C16.7515 28.2718 16.7318 28.2592 16.7135 28.2437C16.6712 28.2099 16.6289 28.1732 16.5895 28.1394V41.9745H16.7135H16.7712H16.829H16.8867H16.9445H17.0023H17.06H17.1178H17.177H17.2347H17.2939H17.3517H17.4094H17.4672H17.525H17.5827H17.6405H17.6982H17.756H17.8138H17.8715H17.9307H17.9885H18.0476H18.1054H18.1632H18.2209H18.2787H18.3365H18.3942H18.452H18.5098H18.5689H18.6267H18.6845H18.7422H18.8H18.8577H18.9169H18.9747H19.0324H19.0902H19.148H19.2071H19.2649H19.3227H19.3804H19.4382H19.496H19.5551H19.6129H19.6707H19.7284H19.7876H19.8454H19.9031H19.9609H20.0186H20.0778H20.1356H20.1933H20.2511H20.3089H20.3666H20.4258H20.4836H20.5413H20.5991H20.6583H20.716H20.7752H20.833H20.8907H20.9485H21.0063H21.064H21.1218H21.1796H21.2373H21.2951H21.3528H21.4106H21.4684H21.5275H21.5853H21.6431H21.7008H21.7586H21.8164H21.8741H21.9319H21.9896H22.0474H22.1066H22.1643H22.2221H22.2799H22.3376H22.3968H22.4546H22.5123H22.5701H22.6279H22.6856H22.7434H22.8012H22.8589H22.9181H22.9759H23.0336H23.0914H23.1491H23.2069H23.2661H23.3238H23.3816H23.4394H23.4985H23.5563H23.6141H23.6718H23.7296H23.7874H23.8451H23.9029H23.9606H24.0184H24.0762H24.1339H24.1917H24.2495H24.3072H24.3664H24.4242H24.4833H24.5411H24.5989H24.658H24.7158H24.7736H24.8313H24.8891H24.9469H25.0046H25.0624H25.123H25.1807H25.2385H25.2963H25.354H25.4118H25.4174C25.4343 41.9745 25.4512 41.9745 25.4695 41.9745H25.5273C25.547 41.9745 25.5653 41.9745 25.5851 41.9716C25.6048 41.9716 25.6231 41.9716 25.6428 41.9716C25.6626 41.9716 25.6809 41.9688 25.7006 41.9688L25.7584 41.966L25.8161 41.9632C25.8358 41.9604 25.8542 41.9604 25.8739 41.9604C25.8936 41.9575 25.9119 41.9575 25.9317 41.9547L25.9908 41.9491C26.0091 41.9463 26.0289 41.9463 26.0486 41.9435C26.0697 41.9406 26.0866 41.9378 26.1078 41.935C26.1275 41.9322 26.1458 41.9322 26.1655 41.9294C26.1852 41.9266 26.2036 41.9237 26.2233 41.9209L26.281 41.9125C26.3008 41.9096 26.3191 41.9068 26.3402 41.904C26.3614 41.9012 26.3769 41.8984 26.398 41.8956C26.4191 41.8927 26.4346 41.8899 26.4557 41.8843L26.5135 41.8744L26.5713 41.8632C26.5924 41.8575 26.6107 41.8533 26.629 41.8505C26.6502 41.8477 26.6657 41.842 26.6882 41.8364L26.746 41.8223L26.8037 41.8082C26.8249 41.8054 26.8418 41.7998 26.8615 41.7941C26.8826 41.7885 26.8995 41.7857 26.9193 41.78C26.9404 41.7744 26.9573 41.7688 26.9798 41.7631C26.9982 41.7561 27.0151 41.7533 27.0376 41.7476L27.0954 41.7293L27.1531 41.7124C27.1743 41.7068 27.1912 41.7011 27.2109 41.6927C27.2306 41.687 27.2461 41.6814 27.2687 41.6758C27.2884 41.6673 27.3067 41.6617 27.3264 41.656L27.3842 41.6321L27.442 41.611C27.4617 41.6053 27.48 41.5969 27.4997 41.5912C27.5194 41.5828 27.5378 41.5743 27.5603 41.5659C27.58 41.5602 27.5955 41.5518 27.6181 41.5433C27.635 41.5377 27.6533 41.5293 27.6758 41.5194L27.7336 41.4926L27.7914 41.4701L27.8491 41.4419C27.8688 41.4334 27.8872 41.425 27.9069 41.4137C27.9266 41.4053 27.9449 41.3968 27.9646 41.387C27.9844 41.3757 28.0027 41.3658 28.0224 41.3574C28.0421 41.3489 28.0604 41.3376 28.0802 41.3278C28.0999 41.3193 28.1182 41.3081 28.1379 41.2982C28.1577 41.2897 28.176 41.2771 28.1957 41.2686L28.2535 41.239L28.3112 41.2094L28.369 41.1799C28.3915 41.1672 28.407 41.1545 28.4268 41.1489C28.4493 41.1362 28.4648 41.1221 28.4845 41.115C28.5071 41.1024 28.5254 41.0911 28.5423 41.0826C28.5648 41.0686 28.5803 41.0573 28.6 41.0474C28.6226 41.0361 28.6381 41.0221 28.6578 41.0122C28.6803 40.9981 28.6958 40.984 28.7184 40.9756C28.7381 40.9629 28.7564 40.9488 28.7761 40.9389C28.7959 40.9291 28.8114 40.9122 28.8339 40.8981C28.8536 40.8868 28.872 40.8713 28.8917 40.86C28.9142 40.846 28.9297 40.8319 28.9494 40.8192C28.972 40.8051 28.9875 40.791 29.0072 40.7783C29.0297 40.7642 29.0452 40.7487 29.0678 40.7347C29.0875 40.7206 29.103 40.7065 29.1255 40.6924C29.1453 40.6769 29.1608 40.6628 29.1833 40.6473C29.203 40.6318 29.2185 40.6177 29.2411 40.6008C29.2608 40.5825 29.2791 40.5712 29.2988 40.5515C29.3214 40.5346 29.3369 40.5219 29.3566 40.505C29.3791 40.4853 29.3946 40.4698 29.4144 40.4529C29.4369 40.4332 29.4524 40.4205 29.4721 40.4008C29.4947 40.3838 29.5102 40.3683 29.5299 40.3486C29.5524 40.3289 29.5679 40.3134 29.5905 40.2937C29.6102 40.274 29.6257 40.2585 29.6482 40.2359C29.668 40.2162 29.6863 40.2007 29.706 40.1782C29.7257 40.1584 29.744 40.1401 29.7638 40.1204C29.7863 40.0978 29.8018 40.0795 29.8215 40.0598C29.8441 40.0373 29.8596 40.0189 29.8793 39.9964C29.899 39.9767 29.9173 39.9556 29.9371 39.933C29.9568 39.9105 29.9751 39.8893 29.9948 39.8668C30.0145 39.8414 30.0329 39.8203 30.0526 39.7978C30.0723 39.7724 30.0906 39.7484 30.1103 39.7231C30.1301 39.6991 30.1484 39.6766 30.1681 39.6512C30.1878 39.6245 30.2061 39.6019 30.2259 39.5752C30.2456 39.5484 30.2639 39.523 30.2836 39.4963C30.3034 39.4681 30.3217 39.4413 30.3414 39.416C30.3611 39.3864 30.3794 39.3582 30.402 39.33C30.4217 39.3004 30.4372 39.2723 30.4597 39.2427C30.4766 39.2131 30.495 39.1849 30.5175 39.1553C30.5372 39.1257 30.5555 39.0947 30.5753 39.0623C30.595 39.0299 30.6133 38.9989 30.6302 38.9665C30.6528 38.9327 30.6711 38.8975 30.688 38.8637C30.7105 38.8299 30.7288 38.7932 30.7486 38.7566C30.7683 38.7228 30.7866 38.6805 30.8063 38.6439C30.826 38.6073 30.8444 38.565 30.8641 38.5256C30.8838 38.4861 30.9021 38.441 30.9218 38.4016C30.9416 38.3551 30.9599 38.3128 30.9796 38.2649C31.0022 38.217 31.0177 38.1705 31.0374 38.1184C31.0599 38.0663 31.0754 38.0141 31.0951 37.962C31.1177 37.9042 31.136 37.8465 31.1529 37.7887C31.1754 37.7253 31.1938 37.6619 31.2107 37.5957C31.2332 37.521 31.2515 37.4478 31.2684 37.3731C31.2938 37.2858 31.3093 37.1942 31.329 37.1054C31.3516 36.9871 31.3699 36.8687 31.3868 36.7462C31.4178 36.4926 31.4361 36.239 31.4361 35.9783V6.02588H31.329Z" fill="#6F8BB5"/>
<path d="M14.7804 6.02588H14.6945H14.6367H14.5789H14.5212H14.4634H14.4056H14.3465H14.2887H14.2309H14.1732H14.1154H14.0576H13.9999H13.9435H13.8872H13.828H13.7702H13.7125H13.6547H13.5969H13.5392H13.4814H13.4237H13.3659H13.3081H13.2504H13.1912H13.1334H13.0743H13.0165H12.9587H12.901H12.8432H12.7854H12.7319H12.6741H12.6164H12.5586H12.4994H12.4417H12.3825H12.3262H12.2684H12.2106H12.1515H12.0923H12.0345H11.9782H11.9204H11.8612H11.8035H11.7443H11.6865H11.6288H11.5752H11.5175H11.4583H11.4005H11.3428H11.285H11.2258H11.1681H11.1103H11.0525H10.9948H10.9356H10.8778H10.8187H10.7609H10.7031H10.6454H10.5876H10.5299H10.4707H10.4129H10.3636H10.3058H10.2481H10.1903H10.1326H10.0734H10.0156H9.95785H9.90009H9.84092H9.78597H9.72821H9.67044H9.61268H9.55492H9.49574H9.43798H9.38022H9.32245H9.26469H9.20833H9.15057H9.09281H9.03504H8.97728H8.91811H8.86035H8.80258H8.74482H8.68706H8.6307H8.57435H8.51658H8.45882H8.40106H8.34188H8.28412H8.22636H8.16859H8.11083H8.05307H7.99671H7.93895H7.88119H7.82342H7.76425H7.70649H7.64731H7.58955H7.53179H7.47261H7.41908H7.36131H7.30355H7.24579H7.18802H7.13026H7.0725H7.01333H6.95556H6.8978H6.84003H6.78509H6.72733H6.66815H6.61039H6.55263H6.49486H6.4371H6.37793H6.32016H6.26381H6.20746H6.14969H6.09193H6.03276H6.00176H5.97499C5.95527 6.02588 5.93695 6.02588 5.91723 6.02588C5.8975 6.02588 5.87919 6.02588 5.85947 6.02588C5.83974 6.02588 5.82143 6.03011 5.8017 6.03151L5.74394 6.03292C5.72421 6.03292 5.7059 6.03433 5.68617 6.03574C5.66645 6.03574 5.64814 6.03856 5.62841 6.03856C5.60869 6.03856 5.59037 6.03856 5.57065 6.04279C5.55092 6.04419 5.53261 6.04419 5.51148 6.04419L5.45371 6.05124C5.43399 6.05265 5.41426 6.05406 5.39454 6.05546C5.37622 6.05546 5.3565 6.05969 5.33678 6.0611L5.27901 6.06955L5.22125 6.07378C5.20153 6.07801 5.18321 6.07942 5.16349 6.08505C5.14517 6.08505 5.12404 6.09069 5.10572 6.0921C5.086 6.0921 5.06768 6.09773 5.04796 6.09914L4.9902 6.11041C4.97047 6.11041 4.95075 6.11745 4.93102 6.12168C4.9113 6.12591 4.89298 6.12873 4.87326 6.13295C4.85495 6.13577 4.83522 6.13577 4.8155 6.14422C4.79577 6.14704 4.77605 6.15268 4.75632 6.15409L4.69856 6.16536C4.67884 6.1724 4.66052 6.17663 4.63939 6.18226C4.62107 6.18367 4.60135 6.19212 4.58163 6.19494C4.5619 6.19917 4.54359 6.20199 4.52386 6.20903C4.50414 6.21326 4.48441 6.2203 4.4661 6.22453L4.40693 6.23862C4.3872 6.24566 4.36889 6.24989 4.34916 6.25552C4.32944 6.26116 4.31112 6.2682 4.2914 6.27384C4.27308 6.27947 4.25336 6.2837 4.23364 6.29215C4.21391 6.29779 4.1956 6.30483 4.17587 6.31047L4.11811 6.33019L4.05894 6.34851C4.03921 6.35696 4.0209 6.35978 4.00117 6.37105C3.98286 6.37669 3.96313 6.38373 3.94341 6.38937C3.92369 6.39641 3.90537 6.40486 3.88565 6.41191L3.84056 6.43304L3.78139 6.45558L3.72363 6.48094C3.7039 6.48799 3.68559 6.49644 3.66586 6.50489C3.64755 6.51053 3.62783 6.5218 3.6081 6.52884C3.58838 6.54011 3.56865 6.54716 3.54893 6.5542C3.5292 6.56547 3.51089 6.57252 3.49116 6.58238C3.47144 6.59224 3.45313 6.6021 3.4334 6.61056C3.41509 6.62042 3.39536 6.62746 3.37564 6.63873L3.31787 6.66832C3.29815 6.67959 3.27843 6.68664 3.26011 6.69932C3.24039 6.71059 3.22207 6.72045 3.20094 6.73031C3.18262 6.74017 3.1629 6.74863 3.14318 6.7599C3.12345 6.77117 3.10373 6.78244 3.08541 6.79371C3.06569 6.80357 3.04737 6.81343 3.02765 6.82189C3.00792 6.83316 2.98961 6.84866 2.96989 6.85852C2.95016 6.86979 2.93044 6.88106 2.91071 6.89233C2.89099 6.9036 2.87267 6.91628 2.85295 6.92473C2.83323 6.93601 2.81491 6.9515 2.79519 6.96136C2.77687 6.97264 2.75715 6.98813 2.73742 6.998C2.7177 7.00786 2.69938 7.02476 2.67966 7.03463C2.65994 7.04871 2.64021 7.0628 2.6219 7.07548C2.60217 7.08957 2.58386 7.10084 2.56272 7.11775C2.54441 7.13043 2.52468 7.1417 2.50496 7.15579L2.4472 7.20087C2.42747 7.21496 2.40916 7.22905 2.38943 7.24455C2.36971 7.26004 2.34999 7.27413 2.33026 7.28681C2.31054 7.30372 2.29222 7.31781 2.2725 7.3319C2.25277 7.35021 2.23446 7.36148 2.21473 7.3798C2.19642 7.3967 2.17669 7.41361 2.15697 7.4277C2.13725 7.44601 2.11893 7.4601 2.09921 7.47983C2.07948 7.49392 2.06117 7.51223 2.04004 7.52632C2.02172 7.54463 2.002 7.56295 1.98227 7.57845C1.96255 7.59817 1.94423 7.61508 1.9231 7.63339C1.90478 7.65171 1.88506 7.6658 1.86534 7.68411C1.84561 7.70665 1.8273 7.72074 1.80757 7.74328C1.78785 7.7616 1.76953 7.77992 1.74981 7.80246C1.73009 7.82218 1.71177 7.8405 1.69205 7.86022C1.67232 7.87854 1.6526 7.90108 1.63428 7.91939C1.61456 7.94193 1.59483 7.96166 1.57511 7.98138C1.55539 8.00533 1.53707 8.02647 1.51735 8.04619C1.49762 8.07014 1.47931 8.09127 1.45817 8.11382C1.43845 8.13213 1.42013 8.15749 1.40041 8.18144C1.38069 8.20398 1.36237 8.22371 1.34265 8.24907C1.32292 8.27443 1.3032 8.29697 1.28488 8.32374C1.26516 8.34487 1.24544 8.37023 1.22712 8.397C1.2074 8.42377 1.18908 8.44772 1.16795 8.47308C1.14963 8.50125 1.12991 8.52661 1.11018 8.55338C1.09046 8.58156 1.07215 8.60974 1.05242 8.6351C1.0327 8.66609 1.01297 8.69427 0.994658 8.72245C0.973525 8.75062 0.95521 8.78162 0.935486 8.80979C0.915762 8.8422 0.897446 8.87319 0.877722 8.90278C0.857998 8.93518 0.839683 8.969 0.819959 9.0014C0.800235 9.03521 0.780511 9.06762 0.762195 9.10143C0.742471 9.13806 0.722747 9.17046 0.704432 9.20709C0.684708 9.24372 0.664984 9.28036 0.646669 9.31699C0.626944 9.35784 0.60722 9.39588 0.587496 9.43674C0.567772 9.47478 0.549457 9.51704 0.529733 9.55931C0.510009 9.60299 0.491694 9.64807 0.471969 9.68752C0.452245 9.73965 0.432521 9.78332 0.414206 9.83404C0.393073 9.88194 0.376167 9.93548 0.356443 9.98479C0.336718 10.0411 0.316994 10.0975 0.29727 10.1539C0.277546 10.2158 0.259231 10.2792 0.239507 10.3426C0.219783 10.4131 0.19865 10.4835 0.181743 10.5554C0.16061 10.6385 0.140886 10.7188 0.12398 10.8047C0.0422659 11.1992 0 11.6064 0 12.0248V26.8207C0.0422659 26.8433 0.083123 26.8602 0.12398 26.8813L0.181743 26.9095L0.239507 26.9377L0.29727 26.9672L0.356443 26.994L0.414206 27.0222L0.471969 27.0504L0.529733 27.0757L0.587496 27.1053L0.646669 27.1278L0.704432 27.156L0.762195 27.1814L0.819959 27.2082L0.877722 27.2349L0.935486 27.2589L0.994658 27.2828L1.05242 27.3082L1.11018 27.3335L1.16795 27.3575L1.22712 27.3814L1.28488 27.4054L1.34265 27.4279L1.40041 27.4519L1.45817 27.473L1.51735 27.497L1.57511 27.5181L1.63428 27.5378L1.69205 27.5618L1.74981 27.5829L1.80757 27.6026L1.86534 27.6252L1.9231 27.6449L1.98227 27.6618L2.04004 27.6843L2.09921 27.7041L2.15697 27.7238L2.21473 27.7407L2.2725 27.7576L2.33026 27.7745L2.38943 27.7942L2.4472 27.8097L2.50496 27.8281L2.56272 27.845L2.6219 27.8605L2.67966 27.8745L2.73742 27.89L2.79519 27.9041L2.85295 27.9224L2.91071 27.9365L2.96989 27.952L3.02765 27.9661L3.08541 27.9802L3.14318 27.9929L3.20094 28.0056L3.26011 28.0168L3.31787 28.0281L3.37564 28.0422L3.4334 28.0535L3.49116 28.0676L3.54893 28.076L3.6081 28.0873L3.66586 28.0957L3.72363 28.107L3.78139 28.1169L3.84056 28.1267L3.89833 28.1352L3.95609 28.1408L4.01385 28.1493L4.07162 28.1591L4.13079 28.1662L4.18855 28.1718L4.24632 28.1789L4.30408 28.1859L4.36184 28.1915L4.41961 28.1972L4.47878 28.2L4.53654 28.2056L4.59431 28.2084L4.65207 28.2141H4.71124L4.769 28.2169L4.82818 28.2211L4.88594 28.2239L4.9437 28.2254L5.00288 28.2268H5.06064L5.1184 28.2282H5.17617H5.21139H5.23393C5.25365 28.2282 5.27197 28.2282 5.29169 28.2282L5.34946 28.2268C5.36777 28.2268 5.38891 28.2268 5.40722 28.2254C5.42694 28.2254 5.44667 28.2239 5.46639 28.2225C5.48612 28.2211 5.50443 28.2211 5.52416 28.2197C5.54388 28.2169 5.5622 28.2169 5.58333 28.2141C5.60164 28.2141 5.62137 28.2141 5.64109 28.2113C5.66082 28.2084 5.67913 28.2084 5.69885 28.2056L5.75662 28.2C5.77634 28.1972 5.79466 28.1944 5.81438 28.1915C5.83411 28.1915 5.85242 28.1887 5.87215 28.1831L5.92991 28.1746C5.94963 28.1718 5.96795 28.1676 5.98767 28.1648C6.0074 28.1605 6.02571 28.1549 6.04544 28.1521C6.06516 28.1493 6.08488 28.1436 6.10461 28.1408C6.12433 28.138 6.14265 28.1324 6.16237 28.1295C6.1821 28.1239 6.20041 28.1197 6.22013 28.1155C6.23845 28.1098 6.25817 28.1056 6.2779 28.1C6.29762 28.0929 6.31594 28.0901 6.33566 28.0845C6.35539 28.0788 6.37511 28.0732 6.39342 28.0676C6.41315 28.0605 6.43146 28.0549 6.4526 28.0478C6.47091 28.0422 6.49064 28.0337 6.51036 28.0281C6.53008 28.0197 6.5484 28.014 6.56812 28.0084C6.58785 27.9999 6.60616 27.9929 6.62589 27.9858C6.64561 27.9788 6.66393 27.9718 6.68365 27.9633C6.70337 27.9548 6.7231 27.9464 6.74282 27.9365C6.76255 27.9281 6.78086 27.9196 6.80059 27.9098C6.82031 27.9013 6.83863 27.89 6.85835 27.8816C6.87667 27.8731 6.89639 27.8633 6.91611 27.8534C6.93584 27.8421 6.95556 27.8337 6.97388 27.8238C6.9936 27.8126 7.01333 27.8027 7.03164 27.7914C7.05136 27.783 7.06968 27.7717 7.09081 27.7618C7.10913 27.7506 7.12885 27.7393 7.14858 27.7294C7.1683 27.7182 7.18661 27.7027 7.20634 27.6942C7.22606 27.6801 7.24438 27.666 7.2641 27.6562C7.28383 27.6421 7.30214 27.628 7.32187 27.6153C7.34159 27.6012 7.35991 27.5857 7.37963 27.573C7.39935 27.5576 7.41767 27.5435 7.43739 27.528C7.45712 27.5125 7.47543 27.4984 7.49516 27.4815C7.51629 27.4617 7.5346 27.4463 7.55433 27.4293C7.57405 27.4096 7.59237 27.3941 7.61209 27.3744C7.63182 27.3533 7.65013 27.3364 7.66986 27.3138C7.68958 27.2927 7.7093 27.273 7.72903 27.2532C7.74875 27.2293 7.76707 27.2096 7.78679 27.187C7.80652 27.1603 7.82624 27.1405 7.84596 27.1123C7.86569 27.0842 7.884 27.0616 7.90373 27.032C7.92345 27.0067 7.94318 26.9799 7.96149 26.9489C7.98121 26.9193 8.00094 26.8883 8.01925 26.8588C8.03898 26.8278 8.0587 26.7925 8.07702 26.7601C8.09674 26.7249 8.11647 26.6826 8.13478 26.6474C8.1545 26.6094 8.17423 26.5615 8.19254 26.5206C8.21368 26.4474 8.23199 26.4009 8.25031 26.3487C8.27144 26.291 8.29116 26.2332 8.30807 26.1726C8.33061 26.0951 8.35034 26.0219 8.36584 25.9416C8.3926 25.8148 8.41233 25.6824 8.42501 25.5513C8.43346 25.4471 8.43769 25.34 8.43769 25.2287V18.276H8.48136H8.53912H8.59689H8.6307H8.68987H8.74764H8.8054H8.86316H8.92093H8.9801H9.03786H9.09563H9.15339H9.21115H9.26892H9.32668H9.38444H9.44221H9.49997H9.55914H9.61691H9.67467H9.73243H9.7902H9.84796H9.90713H9.9649H10.0227H10.0804H10.1396H10.1974H10.2551H10.3129H10.3706H10.4298H10.4876H10.5468H10.6045H10.6623H10.72H10.7778H10.8356H10.8947H10.9525H11.0117H11.0694H11.1272H11.185H11.2427H11.3019H11.3597H11.4174H11.4752H11.5344H11.5921H11.6499H11.7077H11.7654H11.8232H11.8824H11.9401H11.9979H12.0556H12.1134H12.1726H12.2303H12.2881H12.3459H12.4036H12.4614H12.5206H12.5783H12.6375H12.6953H12.753H12.8108H12.8686H12.9263H12.9841H13.0419H13.0996H13.1588H13.2166H13.2757H13.3335H13.3913H13.449H13.5068H13.5645H13.5927V25.2301C13.5927 25.433 13.5843 25.6316 13.5645 25.8275C13.5505 25.9669 13.5307 26.105 13.5068 26.2403C13.4899 26.329 13.4716 26.422 13.449 26.5094C13.4321 26.584 13.4124 26.6559 13.3913 26.7235C13.3729 26.7841 13.3546 26.8433 13.3335 26.9024C13.3152 26.9546 13.2969 27.0039 13.2757 27.056C13.2574 27.1025 13.2377 27.1476 13.2166 27.1955C13.1982 27.2377 13.1785 27.2828 13.1588 27.3223C13.1405 27.3589 13.1208 27.4012 13.0996 27.4378C13.0813 27.4716 13.0616 27.5111 13.0419 27.5435C13.0221 27.5759 13.0038 27.6097 12.9841 27.6393C12.9644 27.6703 12.9461 27.7027 12.9263 27.7323C12.908 27.7604 12.8883 27.79 12.8686 27.8182C12.8488 27.8478 12.8305 27.876 12.8108 27.9041C12.7911 27.9323 12.7728 27.9563 12.753 27.9844C12.7333 28.0098 12.715 28.0309 12.6953 28.0563C12.677 28.0802 12.6572 28.1028 12.6375 28.1253C12.6192 28.1493 12.5995 28.1718 12.5797 28.1944C12.5614 28.2169 12.5417 28.238 12.522 28.2578C12.5023 28.2803 12.4839 28.2986 12.4628 28.3183C12.4445 28.3381 12.4248 28.3564 12.405 28.3761C12.3867 28.3958 12.3684 28.4141 12.3473 28.4339C12.329 28.4536 12.3092 28.4691 12.2895 28.4874C12.2698 28.5057 12.2515 28.5212 12.2318 28.5409C12.212 28.5578 12.1937 28.5733 12.174 28.5902C12.1543 28.6057 12.136 28.6198 12.1148 28.6367C12.0965 28.6536 12.0782 28.6663 12.0571 28.6818C12.0387 28.7001 12.019 28.7114 11.9993 28.7255C11.981 28.7438 11.9613 28.7551 11.9415 28.7678C11.9218 28.7833 11.9035 28.7974 11.8838 28.8086C11.864 28.8227 11.8457 28.8382 11.8246 28.8481C11.8063 28.8636 11.7866 28.8748 11.7668 28.8847C11.7471 28.8988 11.7288 28.9129 11.7091 28.9227C11.6908 28.9368 11.671 28.9495 11.6513 28.958C11.6316 28.9692 11.6133 28.9833 11.5935 28.9904C11.5738 29.0045 11.5555 29.0171 11.5358 29.0242C11.5161 29.0369 11.4977 29.0481 11.4766 29.058C11.4583 29.0693 11.4386 29.0805 11.4188 29.0904C11.4005 29.0988 11.3808 29.1101 11.3611 29.1186C11.3414 29.1298 11.323 29.1411 11.3033 29.1482C11.2836 29.1594 11.2653 29.1679 11.2441 29.1777C11.2258 29.1876 11.2061 29.1975 11.1864 29.2073C11.1681 29.2158 11.1483 29.2242 11.1286 29.2327C11.1103 29.244 11.0906 29.2538 11.0709 29.2623L11.0131 29.2905L10.9539 29.3186C10.9356 29.3285 10.9159 29.3369 10.8962 29.3482C10.8764 29.3539 10.8567 29.3637 10.837 29.3722L10.7778 29.3989L10.72 29.4257C10.7003 29.4327 10.682 29.4398 10.6623 29.4497C10.6426 29.4581 10.6242 29.4666 10.6045 29.4722C10.5862 29.4807 10.5651 29.4877 10.5468 29.4947L10.4876 29.5173C10.4679 29.5229 10.4495 29.5314 10.4298 29.537C10.4101 29.5469 10.3918 29.5525 10.3706 29.5595L10.3129 29.5765L10.2551 29.5962C10.2354 29.6018 10.2157 29.6089 10.1974 29.6145L10.1396 29.6314L10.0804 29.6483C10.0621 29.6539 10.0424 29.6624 10.0227 29.668L9.9649 29.6878C9.94658 29.6934 9.92686 29.6962 9.90713 29.7018C9.88741 29.7075 9.86768 29.7131 9.84796 29.7187L9.7902 29.7342C9.77047 29.7399 9.75216 29.7469 9.73243 29.7497C9.71412 29.7554 9.69439 29.761 9.67467 29.7667L9.61691 29.7821C9.59718 29.7864 9.57887 29.792 9.55914 29.7962C9.53942 29.8005 9.5211 29.8061 9.49997 29.8117L9.44221 29.823C9.42248 29.8286 9.40417 29.8315 9.38444 29.8371L9.32668 29.8455L9.26892 29.8568C9.24919 29.8625 9.23088 29.8653 9.21115 29.8709L9.15339 29.8822L9.09563 29.8949L9.03786 29.9061C9.01673 29.9089 8.99982 29.9104 8.9801 29.9146C8.96037 29.9174 8.94065 29.9202 8.92093 29.9258L8.86316 29.9343C8.84485 29.9399 8.82512 29.9428 8.8054 29.9456L8.74764 29.954L8.68987 29.9639L8.6307 29.9343C8.61239 29.9385 8.59407 29.9399 8.57294 29.9442L8.51517 29.954L8.45741 29.9568L8.39965 29.9653L8.34048 29.9695L8.28271 29.9766L8.22495 29.985L8.16718 29.9907L8.10942 29.9963L8.05166 30.0047L7.99389 30.0104L7.93613 30.016L7.87837 30.0231L7.8206 30.0259L7.76143 30.0315L7.70367 30.0372L7.6445 30.04L7.58673 30.0428L7.52897 30.0456L7.4698 30.0512L7.41203 30.0541L7.36131 30.0625L7.30355 30.0653L7.24579 30.0681L7.18802 30.071H7.13026L7.0725 30.0724L7.01333 30.0752L6.95556 30.0794L6.8978 30.0822H6.84003L6.78227 30.0851H6.72451L6.66534 30.0879H6.60757L6.54981 30.0907H6.49204H6.43428H6.37511H6.31735H6.26381H6.20605H6.17082H6.14828H6.09052H6.03135H5.97358H5.91582H5.85806H5.80029H5.74253L5.68477 30.0879H5.627H5.56924H5.51007L5.4523 30.0865H5.39313L5.33537 30.0836H5.2776L5.21984 30.0794H5.16208L5.10431 30.0766L5.04655 30.0738L4.98879 30.071L4.92962 30.0681L4.8789 30.0611L4.82113 30.0583L4.76196 30.0541L4.7042 30.0512L4.64502 30.0484L4.58726 30.0428L4.5295 30.04L4.47173 30.0372L4.41256 30.0315L4.3548 30.0287L4.29704 30.0245L4.23927 30.0231L4.18151 30.0174L4.12374 30.0146L4.06457 30.009L4.00681 30.0062L3.94905 30.0005L3.89128 29.9949L3.84056 29.9864L3.78139 29.9808L3.72363 29.9752L3.66586 29.9695L3.6081 29.9639L3.54893 29.9583L3.49116 29.9498L3.4334 29.9442L3.37564 29.9385L3.31787 29.9329L3.26011 29.9273L3.20094 29.9188L3.14318 29.9132L3.08541 29.9075L3.02765 29.9019L2.96989 29.8934L2.91071 29.8864L2.85295 29.878L2.79519 29.8723L2.73742 29.8639L2.67966 29.8554L2.6219 29.847L2.56272 29.8413L2.50496 29.8329L2.4472 29.8216L2.38943 29.816L2.33026 29.8075L2.2725 29.7976L2.21473 29.7892L2.15697 29.7807L2.09921 29.7709L2.04004 29.7624L1.98227 29.754L1.9231 29.7455L1.86534 29.7342L1.80757 29.7258L1.74981 29.7145L1.69205 29.7061L1.63428 29.6962L1.57511 29.6849L1.51735 29.6751L1.45817 29.6638L1.40041 29.6511L1.34265 29.6427L1.28488 29.6328L1.22712 29.6215L1.16795 29.6103L1.11018 29.599L1.05242 29.5877L0.994658 29.5736L0.935486 29.5624L0.877722 29.5483L0.819959 29.5356L0.762195 29.5243L0.704432 29.5145L0.646669 29.5004L0.587496 29.4863L0.529733 29.475L0.471969 29.4609L0.414206 29.4468L0.356443 29.4313L0.29727 29.4158L0.239507 29.4018L0.181743 29.3877L0.12398 29.3736C0.0422659 29.3553 0 29.344 0 29.344V41.973H0.12398H0.181743H0.239507H0.318403H0.377576H0.435339H0.493102H0.550866H0.608629H0.667802H0.725565H0.783328H0.841092H0.898855H0.956619H1.01579H1.07355H1.13132H1.18908H1.24825H1.30602H1.36378H1.42154H1.47931H1.53848H1.59624H1.65542H1.71318H1.77094H1.82871H1.88647H1.94423H2.0034H2.06117H2.12034H2.1781H2.23587H2.29363H2.35139H2.41057H2.46833H2.52609H2.58386H2.64303H2.70079H2.75856H2.81632H2.87408H2.93185H2.99102H3.04878H3.10654H3.16431H3.22207H3.28124H3.33901H3.39677H3.45453H3.5123H3.57006H3.62923H3.687H3.74476H3.80252H3.84056H3.89833H3.95609H4.01385H4.07162H4.13079H4.18855H4.24632H4.30408H4.36184H4.41961H4.47878H4.53654H4.59431H4.65207H4.71124H4.769H4.82818H4.88594H4.9437H5.00288H5.06064H5.1184H5.17617H5.23393H5.29169H5.34946H5.40722H5.46639H5.52416H5.58333H5.64109H5.69885H5.75662H5.81438H5.87215H5.92991H5.98767H6.04544H6.10461H6.16237H6.22013H6.2779H6.33566H6.39342H6.4526H6.51036H6.56812H6.62589H6.68365H6.74282H6.80059H6.85835H6.91611H6.97388H7.03164H7.09081H7.14858H7.20634H7.2641H7.32187H7.37963H7.43739H7.49516H7.55433H7.61209H7.66986H7.72903H7.78679H7.84596H7.90373H7.96149H8.01925H8.07702H8.13478H8.19254H8.25031H8.30807H8.36584H8.42501H8.48277H8.54053H8.5983H8.6307H8.68987H8.74764H8.8054H8.80963C8.82794 41.973 8.84485 41.973 8.86316 41.973H8.92093C8.94065 41.973 8.96037 41.9731 8.9801 41.9702C8.99982 41.9702 9.01814 41.9702 9.03786 41.9702C9.05618 41.9702 9.0759 41.9674 9.09563 41.9674L9.15339 41.9646L9.21115 41.9618C9.23088 41.959 9.24919 41.959 9.26892 41.959C9.28864 41.9561 9.30696 41.9561 9.32668 41.9533L9.38444 41.9477C9.40417 41.9463 9.42248 41.9449 9.44221 41.9421C9.46193 41.9392 9.48025 41.9364 9.49997 41.9336C9.51969 41.9308 9.53801 41.9308 9.55914 41.928C9.57887 41.9251 9.59718 41.9223 9.61691 41.9195L9.67467 41.9139C9.69298 41.9111 9.71271 41.9082 9.73243 41.9026C9.75216 41.8998 9.77047 41.897 9.7902 41.8942C9.80992 41.8899 9.82823 41.8871 9.84796 41.8829L9.90713 41.873C9.92545 41.8702 9.94517 41.8632 9.9649 41.8603C9.98462 41.8547 10.0029 41.8519 10.0227 41.8491C10.0424 41.8463 10.0607 41.8406 10.0804 41.835L10.1396 41.8223L10.1974 41.8068C10.2171 41.804 10.2354 41.7984 10.2551 41.7927C10.2734 41.7899 10.2932 41.7843 10.3129 41.7786C10.3326 41.773 10.3509 41.7674 10.3706 41.7617C10.3904 41.7547 10.4087 41.7519 10.4298 41.7462L10.4876 41.7279L10.5468 41.711C10.5651 41.7054 10.5848 41.6997 10.6045 41.6913C10.6242 41.6856 10.6426 41.68 10.6623 41.6744C10.682 41.6659 10.7003 41.6603 10.72 41.6546L10.7778 41.6307L10.8356 41.6096C10.8553 41.6039 10.875 41.5955 10.8947 41.5884C10.9145 41.5814 10.9328 41.5729 10.9525 41.5645C10.9722 41.5588 10.9905 41.5532 11.0117 41.5448C11.0314 41.5363 11.0497 41.5264 11.0694 41.518C11.0878 41.5109 11.1075 41.4997 11.1272 41.4912L11.185 41.4659L11.2427 41.4405C11.2625 41.432 11.2808 41.4236 11.3019 41.4123C11.3202 41.4039 11.3399 41.394 11.3597 41.3856C11.3794 41.3729 11.3977 41.3644 11.4174 41.356C11.4372 41.3461 11.4555 41.3362 11.4752 41.3264C11.4963 41.3165 11.5146 41.3081 11.5344 41.2968C11.5541 41.2855 11.5724 41.2743 11.5921 41.2672L11.6499 41.2376C11.6682 41.2264 11.6879 41.2151 11.7077 41.2052C11.7274 41.1939 11.7457 41.1827 11.7654 41.177C11.7851 41.163 11.8049 41.1517 11.8232 41.1446C11.8429 41.1334 11.8612 41.1221 11.8824 41.1108C11.9007 41.0996 11.9204 41.0869 11.9401 41.077C11.9598 41.0657 11.9796 41.0517 11.9979 41.0418C12.0176 41.0277 12.0359 41.0164 12.0556 41.0094C12.0754 40.9939 12.0937 40.9812 12.1134 40.9713C12.1331 40.9601 12.1529 40.946 12.1726 40.9347C12.1909 40.922 12.2106 40.9079 12.2303 40.8953C12.2501 40.8812 12.2684 40.8685 12.2881 40.8572C12.3064 40.8431 12.3262 40.8291 12.3459 40.8164C12.3656 40.7995 12.3853 40.7868 12.4036 40.7755C12.4234 40.76 12.4417 40.7459 12.4614 40.7318C12.4811 40.7149 12.4994 40.7023 12.5206 40.6882C12.5389 40.6741 12.5586 40.6586 12.5783 40.6431C12.5981 40.6276 12.6164 40.6121 12.6361 40.5952C12.6558 40.5797 12.6741 40.5656 12.6939 40.5487C12.7136 40.5304 12.7319 40.5177 12.7516 40.4994C12.7714 40.4825 12.7897 40.467 12.8094 40.4473C12.8291 40.4303 12.8474 40.4163 12.8672 40.3965C12.8869 40.3782 12.9052 40.3627 12.9249 40.3416C12.9446 40.3233 12.963 40.3078 12.9827 40.288C13.0024 40.2655 13.0207 40.2528 13.0404 40.2317C13.0602 40.2106 13.0785 40.1922 13.0982 40.1739C13.1179 40.15 13.1377 40.1373 13.1574 40.1148C13.1771 40.0922 13.1954 40.0739 13.2151 40.0542C13.2349 40.0316 13.2532 40.0133 13.2743 39.9922C13.294 39.9682 13.3124 39.9485 13.3321 39.926C13.3518 39.902 13.3701 39.8823 13.3898 39.8583C13.4096 39.8358 13.4293 39.8133 13.4476 39.7893C13.4673 39.764 13.4856 39.7428 13.5054 39.7175C13.5251 39.6921 13.5434 39.671 13.5631 39.6442C13.5829 39.6174 13.6012 39.5935 13.6209 39.5681C13.6406 39.5428 13.6589 39.516 13.6787 39.4906C13.6984 39.461 13.7167 39.4357 13.7364 39.4075C13.7561 39.3779 13.7759 39.3512 13.7942 39.3216C13.8139 39.292 13.8336 39.2638 13.852 39.2342C13.8717 39.2046 13.8914 39.1736 13.9111 39.1455C13.9308 39.1159 13.9492 39.0821 13.9689 39.0539C13.9886 39.0243 14.0083 38.9905 14.0267 38.9595C14.0464 38.9243 14.0661 38.889 14.0844 38.8552C14.1041 38.8214 14.1225 38.7862 14.1422 38.7482C14.1619 38.7129 14.1816 38.6735 14.1999 38.6355C14.2197 38.5974 14.238 38.558 14.2577 38.5171C14.2774 38.4777 14.2972 38.434 14.3155 38.3931C14.3352 38.348 14.3549 38.303 14.3732 38.2579C14.3944 38.2086 14.4127 38.1621 14.4324 38.1114C14.4521 38.0592 14.4704 38.0071 14.4902 37.9564C14.5099 37.8986 14.5296 37.8409 14.5479 37.7831C14.5677 37.7197 14.5874 37.6535 14.6057 37.5887C14.6268 37.5126 14.6466 37.4421 14.6635 37.3675C14.6846 37.2801 14.7043 37.1871 14.7212 37.0984C14.7438 36.98 14.7635 36.8589 14.7804 36.7377C14.8114 36.4841 14.8297 36.2291 14.8297 35.9699V6.02588H14.7804Z" fill="#6F8BB5"/>
<path d="M47.9747 6.01855H47.8733V6.0256H47.8169H47.7592H47.7014H47.6436H47.5859H47.5281H47.4704H47.4112H47.3534H47.2957H47.2351H47.1801H47.1224H47.0646H47.0068H46.9491H46.8913H46.8335H46.773H46.7152H46.6574H46.6025H46.5419H46.4841H46.4264H46.3686H46.3109H46.2545H46.1967H46.139H46.0812H46.0234H45.9657H45.9079H45.8502H45.7924H45.7346H45.674H45.6163H45.5585H45.5036H45.4458H45.3881H45.3303H45.2725H45.2148H45.157H45.0992H45.0387H44.9823H44.9217H44.864H44.8062H44.7484H44.6907H44.6329H44.5751H44.5174H44.4568H44.4047H44.3469H44.2891H44.2314H44.1736H44.1158H44.0581H44.0003H43.9426H43.8848H43.827H43.7693H43.7087H43.6495H43.5917H43.534H43.4762H43.4185H43.3607H43.3057H43.2452H43.1874H43.1296H43.0719H43.0141H42.9535H42.8958H42.838H42.7802H42.7281H42.6675H42.6098H42.552H42.4942H42.4379H42.3801H42.3224H42.2646H42.2068H42.1491H42.0913H42.0335H41.9758H41.918H41.8574H41.7997H41.7419H41.6841H41.6292H41.5714H41.5137H41.4559H41.3981H41.3404H41.2826H41.2249H41.1643H41.1079H41.0502H40.9924H40.9346H40.8769H40.8163H40.7585H40.7008H40.643H40.5852H40.5303H40.4697H40.4148H40.357H40.2964H40.2387H40.1809H40.1231H40.0654H40.0104H39.9527H39.8949H39.8371H39.7794H39.7216H39.6624H39.6047H39.5469H39.4891H39.4314H39.3708H39.313H39.2553H39.1975H39.1552H39.1397C39.12 6.0256 39.1031 6.0256 39.082 6.0256C39.0594 6.0256 39.0453 6.0256 39.0242 6.0256C39.0045 6.0256 38.9876 6.02701 38.9664 6.02842L38.9087 6.02983C38.889 6.02983 38.8721 6.02983 38.8509 6.03123C38.8284 6.03123 38.8115 6.03405 38.7903 6.03405C38.7734 6.03546 38.7537 6.03687 38.7326 6.03828L38.6748 6.0411L38.617 6.04955C38.5973 6.05096 38.5804 6.05237 38.5593 6.05519C38.5396 6.05659 38.5198 6.05941 38.4987 6.06082L38.4409 6.06646C38.424 6.06787 38.4043 6.07068 38.3832 6.0735C38.3635 6.07632 38.3465 6.07773 38.3254 6.08054C38.3057 6.08336 38.2888 6.08618 38.2677 6.089C38.2479 6.09041 38.231 6.09463 38.2071 6.09745L38.1493 6.10731C38.1296 6.11013 38.1127 6.11295 38.0915 6.11577C38.0718 6.11999 38.0549 6.12422 38.0352 6.12704C38.0141 6.12986 37.9971 6.13408 37.9774 6.13831L37.9197 6.14958L37.8619 6.16226C37.8408 6.16649 37.8239 6.17212 37.8041 6.17494C37.783 6.17917 37.7661 6.18339 37.7464 6.18903C37.7252 6.19466 37.7055 6.19889 37.6886 6.20312L37.6308 6.21861C37.6097 6.22284 37.59 6.22848 37.5703 6.23411C37.5491 6.23975 37.5322 6.24397 37.5125 6.25102C37.4942 6.25665 37.4745 6.26229 37.4547 6.26792C37.4336 6.27356 37.4167 6.27919 37.397 6.28483C37.3758 6.29047 37.3589 6.2961 37.3392 6.30315L37.2786 6.32146C37.2603 6.32851 37.2406 6.33414 37.2209 6.34118C37.1997 6.34823 37.1828 6.35386 37.1631 6.36232C37.142 6.36795 37.1251 6.37641 37.1053 6.38204C37.0842 6.38909 37.0687 6.39613 37.0476 6.40317L36.9898 6.42572L36.9292 6.44826C36.9109 6.4553 36.8926 6.46376 36.8715 6.47221C36.8503 6.47925 36.8348 6.48771 36.8137 6.49616C36.7926 6.50461 36.7771 6.51307 36.7559 6.52152C36.7348 6.52997 36.7193 6.53843 36.6982 6.54688C36.677 6.55533 36.6615 6.56519 36.6404 6.57365C36.6193 6.5821 36.6038 6.59196 36.5826 6.60182L36.5249 6.63C36.5038 6.63986 36.4883 6.64973 36.4671 6.65959C36.446 6.66945 36.4305 6.67931 36.4094 6.68917C36.3882 6.69904 36.3727 6.7089 36.3488 6.71876C36.3305 6.72862 36.3121 6.73989 36.291 6.74976C36.2699 6.75962 36.2544 6.77089 36.2333 6.78075C36.2121 6.79061 36.1966 6.80329 36.1755 6.81315C36.1544 6.82443 36.1389 6.8357 36.1177 6.84697C36.0966 6.85824 36.0811 6.86951 36.06 6.88078C36.0388 6.89205 36.0233 6.90473 36.0022 6.916L35.9444 6.95263C35.9247 6.96531 35.905 6.97799 35.8839 6.99067L35.8247 7.0273L35.7669 7.06675C35.7472 7.07943 35.7289 7.09352 35.7092 7.10761L35.6514 7.14846C35.6317 7.16255 35.6134 7.17664 35.5936 7.19073C35.5739 7.20482 35.5556 7.21891 35.5359 7.233L35.4781 7.27808L35.4203 7.32316C35.4006 7.33584 35.3823 7.35416 35.3626 7.36825C35.3428 7.38374 35.3231 7.39783 35.3048 7.41615C35.2865 7.43446 35.2668 7.44996 35.247 7.46687C35.2273 7.48377 35.209 7.50068 35.1865 7.51759C35.1667 7.53449 35.1512 7.5514 35.1287 7.56831C35.109 7.58662 35.0907 7.60353 35.0738 7.62184C35.0512 7.64016 35.0329 7.65706 35.0132 7.67538C34.9934 7.69369 34.9751 7.71201 34.9554 7.73173C34.9357 7.75005 34.9174 7.76977 34.8976 7.78809C34.8751 7.80781 34.8596 7.82754 34.8399 7.84726C34.8173 7.86839 34.8018 7.88812 34.7821 7.90784C34.7624 7.92897 34.7441 7.9487 34.7244 7.96983C34.7018 7.99096 34.6835 8.01351 34.6666 8.03464C34.6441 8.05577 34.6257 8.07691 34.606 8.09945C34.5863 8.12199 34.568 8.14453 34.5482 8.16848C34.5285 8.19243 34.5102 8.21497 34.4905 8.23752C34.4708 8.26147 34.4524 8.28542 34.4327 8.30937C34.413 8.33473 34.3947 8.36009 34.375 8.38545C34.3552 8.41081 34.3369 8.43617 34.3172 8.46153C34.2975 8.4897 34.2792 8.51506 34.2594 8.54183C34.2397 8.5686 34.2228 8.59678 34.2017 8.62495C34.1819 8.65313 34.165 8.68272 34.1439 8.71089C34.1214 8.74048 34.1045 8.77007 34.0861 8.79965C34.0636 8.83065 34.0467 8.86164 34.0284 8.89264C34.0058 8.92504 33.9889 8.95745 33.9678 8.98844C33.9481 9.02225 33.9312 9.05607 33.91 9.08988C33.8903 9.12369 33.872 9.15891 33.8509 9.19554C33.8297 9.23217 33.8128 9.2688 33.7917 9.30543C33.7691 9.34488 33.7551 9.38292 33.7339 9.42237C33.7114 9.46323 33.6945 9.50408 33.6762 9.54635C33.6536 9.59003 33.6395 9.63511 33.6184 9.67878C33.5959 9.72528 33.5789 9.77318 33.5606 9.82108C33.5381 9.8718 33.5212 9.92393 33.5029 9.97465C33.4803 10.031 33.4634 10.0874 33.4451 10.1437C33.4226 10.2043 33.4057 10.2677 33.3845 10.3297C33.3648 10.3987 33.3479 10.4706 33.3268 10.541C33.3042 10.6241 33.2873 10.7087 33.269 10.7932C33.1859 11.1877 33.145 11.5962 33.145 12.0147V18.2362H33.269H33.3268H33.3845H33.4451H33.5029H33.5606H33.6184H33.6762H33.7339H33.7917H33.8495H33.9072H33.965H34.0256H34.0833H34.1411H34.1989H34.2566H34.3144H34.3721H34.4299H34.4877H34.5454H34.6032H34.6638H34.7215H34.7793H34.8371H34.8948H34.9526H35.0104H35.0709H35.1259H35.1836H35.2442H35.302H35.3598H35.4175H35.4753H35.533H35.5908H35.6486H35.7063H35.7641H35.8219H35.8796H35.9402H35.998H36.0557H36.1135H36.1713H36.229H36.2868H36.3446H36.4051H36.4629H36.5207H36.5784H36.6362H36.6939H36.7517H36.8095H36.8672H36.925H36.9856H37.0433H37.1011H37.1589H37.2307H37.2885H37.3463H37.404H37.4646H37.5224H37.5801H37.6379H37.6957H37.7534H37.8112H37.8689H37.9295H37.9873H38.0451H38.1028H38.1606H38.2183H38.2761H38.3339H38.3944H38.4522H38.51H38.5677H38.6255H38.6833H38.7453H38.803H38.8608H38.9185H38.9763H39.0341H39.0918H39.1524H39.2102H39.2679H39.3257H39.3835H39.4412H39.499H39.5568H39.6145H39.6723H39.7301H39.7878H39.8456H39.9033H39.9611H40.0189H40.0766H40.1344H40.1922H40.2499H40.3077H40.3654H40.4232H40.481H40.5416H40.5993H40.6571H40.7163H40.774H40.8318H40.8924H40.9501H41.0079H41.0657H41.1234H41.1812H41.2389H41.2967H41.3545H41.4122H41.47H41.5306H41.5883H41.6461H41.6743H41.7053H41.763L41.8194 18.2376L41.8772 18.239L41.9363 18.2404L41.9927 18.2433L42.0505 18.2461L42.1082 18.2489L42.1688 18.2517L42.2266 18.2545L42.2618 18.2574L42.2843 18.2588L42.3421 18.2616L42.3998 18.2658L42.4576 18.27L42.5154 18.2743L42.5731 18.2813L42.6309 18.2869L42.6887 18.294L42.7492 18.301L42.807 18.3081L42.8648 18.3151C42.8831 18.3179 42.9014 18.3208 42.9225 18.325L42.9803 18.3348C43.0014 18.3377 43.0169 18.3419 43.0381 18.3461C43.0592 18.3489 43.0747 18.3546 43.0958 18.3574L43.1536 18.3687C43.1747 18.3729 43.193 18.3785 43.2142 18.3813C43.2353 18.3856 43.2508 18.3912 43.2719 18.3954L43.3297 18.4109C43.3508 18.4151 43.3663 18.4208 43.3875 18.425C43.4086 18.4306 43.4241 18.4363 43.4452 18.4419C43.4664 18.4476 43.4847 18.4532 43.503 18.4602C43.5241 18.4659 43.5396 18.4715 43.5608 18.4771C43.5819 18.4842 43.5974 18.4898 43.6185 18.4969C43.6396 18.5025 43.6551 18.5095 43.6791 18.5166C43.6974 18.5222 43.7157 18.5307 43.7369 18.5377C43.758 18.5448 43.7735 18.5518 43.7946 18.5589C43.8143 18.5673 43.8313 18.5744 43.8524 18.5828C43.8735 18.5913 43.8918 18.5983 43.9102 18.6082C43.9299 18.6166 43.9468 18.6237 43.9707 18.6321C43.9905 18.642 44.0074 18.6504 44.0285 18.6589C44.0482 18.6673 44.0651 18.6786 44.0863 18.6871C44.1032 18.6955 44.1229 18.7054 44.144 18.7166C44.1637 18.7265 44.1807 18.7364 44.2018 18.7462C44.2215 18.7561 44.2384 18.7674 44.2596 18.7772C44.2793 18.7885 44.2962 18.7998 44.3173 18.811C44.337 18.8223 44.3568 18.835 44.3751 18.8463C44.3948 18.8589 44.4117 18.8702 44.4328 18.8829C44.4526 18.8956 44.4723 18.9083 44.4906 18.9209C44.5103 18.9336 44.5272 18.9477 44.5512 18.9618C44.5681 18.9759 44.5878 18.99 44.6089 19.0041C44.6287 19.0196 44.6456 19.0336 44.6667 19.0505C44.6864 19.0646 44.7033 19.0815 44.7231 19.0984C44.7442 19.1139 44.7611 19.1309 44.7808 19.1492C44.802 19.1661 44.8189 19.1844 44.8386 19.2027C44.8597 19.221 44.8766 19.2393 44.8964 19.2591C44.9175 19.2802 44.9344 19.2999 44.9541 19.3196C44.9753 19.3422 44.995 19.3619 45.0147 19.3844C45.0358 19.407 45.0527 19.4309 45.0725 19.4535C45.0936 19.4788 45.1105 19.5028 45.1302 19.5282C45.1514 19.5563 45.1711 19.5817 45.188 19.6099C45.2091 19.6395 45.226 19.669 45.2458 19.6986C45.2669 19.731 45.2866 19.7634 45.3035 19.7972C45.3246 19.8339 45.3444 19.8719 45.3613 19.91C45.3852 19.9522 45.4021 19.9959 45.419 20.041C45.443 20.0931 45.4599 20.1452 45.4796 20.1988C45.5008 20.265 45.5205 20.334 45.5374 20.4045C45.5642 20.5172 45.5839 20.6341 45.5952 20.7539C45.6036 20.8468 45.6107 20.9441 45.6107 21.0441C45.6107 21.1371 45.6036 21.2301 45.5952 21.323C45.5839 21.44 45.5656 21.5541 45.5374 21.6654C45.5205 21.7344 45.5036 21.8035 45.4796 21.8711C45.4599 21.9246 45.443 21.9768 45.419 22.0289C45.4021 22.0726 45.3852 22.1176 45.3613 22.1613C45.3444 22.2008 45.3246 22.2388 45.3035 22.2768C45.2866 22.3107 45.2669 22.3445 45.2458 22.3783C45.226 22.4093 45.2091 22.4389 45.188 22.4699C45.1711 22.4994 45.1514 22.5276 45.1302 22.5544C45.1105 22.5812 45.0936 22.6065 45.0725 22.6319C45.0527 22.6558 45.0358 22.6798 45.0147 22.7037C44.995 22.7263 44.9781 22.7488 44.9541 22.77C44.9372 22.7911 44.9175 22.8122 44.8964 22.8333C44.8766 22.8531 44.8597 22.8728 44.8386 22.8925C44.8189 22.9108 44.802 22.9292 44.7808 22.9489C44.7611 22.9672 44.7442 22.9841 44.7231 23.001C44.7033 23.0179 44.6864 23.0348 44.6667 23.0531C44.6456 23.0672 44.6287 23.0827 44.6089 23.0982C44.5878 23.1137 44.5709 23.1278 44.5512 23.1433C44.5301 23.1574 44.5131 23.1715 44.4906 23.1842C44.4723 23.1997 44.4526 23.2123 44.4328 23.225C44.4117 23.2363 44.3948 23.2504 44.3751 23.2616C44.3568 23.2743 44.337 23.2856 44.3173 23.2983C44.2962 23.3095 44.2793 23.3208 44.2596 23.3307C44.2384 23.3419 44.2215 23.3532 44.2018 23.3631C44.1807 23.3744 44.1637 23.3842 44.144 23.3927C44.1229 23.4025 44.106 23.4138 44.0863 23.4223C44.0651 23.4335 44.0482 23.4434 44.0285 23.4518C44.0074 23.4631 43.9905 23.4716 43.9707 23.4814C43.9496 23.4899 43.9341 23.4983 43.9102 23.5068C43.8918 23.5152 43.8735 23.5237 43.8524 23.5321C43.8313 23.5406 43.8158 23.5491 43.7946 23.5575C43.7735 23.5646 43.758 23.5744 43.7369 23.58C43.7157 23.5885 43.7002 23.5941 43.6791 23.6026C43.658 23.6096 43.6396 23.6153 43.6185 23.6223C43.5974 23.6279 43.5819 23.6364 43.5608 23.642C43.5396 23.6477 43.5241 23.6533 43.503 23.6618C43.4847 23.6674 43.4664 23.673 43.4452 23.6787C43.4241 23.6843 43.4086 23.6899 43.3875 23.6956C43.3663 23.7012 43.3508 23.7068 43.3297 23.7125C43.3086 23.7153 43.2931 23.7209 43.2719 23.7266C43.2508 23.7308 43.2353 23.735 43.2142 23.7393L43.1536 23.7533C43.1353 23.759 43.117 23.7618 43.0958 23.7674L43.0381 23.7787C43.0169 23.7815 43.0014 23.7843 42.9803 23.7886L42.9225 23.7984L42.869 23.8069V23.8759L42.9239 23.8815L42.9817 23.8844L43.0395 23.89L43.0972 23.8956L43.155 23.9013L43.2156 23.9097L43.2733 23.9168C43.2959 23.9196 43.3114 23.9224 43.3311 23.9252L43.3889 23.9351C43.4114 23.9379 43.4269 23.9407 43.4466 23.9464L43.5044 23.9548L43.5622 23.9675C43.5847 23.9717 43.6002 23.9745 43.6199 23.9788C43.6425 23.983 43.658 23.9858 43.6805 23.9914C43.6988 23.9971 43.7157 23.9999 43.7383 24.0055C43.758 24.0083 43.7763 24.014 43.796 24.0196C43.8158 24.0224 43.8341 24.0281 43.8538 24.0337C43.8749 24.0393 43.8918 24.045 43.9116 24.0492C43.9313 24.0562 43.9496 24.0591 43.9721 24.0675L44.0299 24.0844C44.0468 24.0901 44.0651 24.0957 44.0877 24.1027C44.1046 24.1084 44.1229 24.1154 44.1454 24.1211C44.1652 24.1295 44.1835 24.1351 44.2032 24.1408C44.2229 24.1478 44.2412 24.1563 44.261 24.1619C44.2807 24.169 44.299 24.1774 44.3187 24.183C44.3384 24.1915 44.3568 24.1971 44.3765 24.207C44.3962 24.2154 44.4145 24.2225 44.4342 24.2309C44.454 24.2394 44.4723 24.2478 44.492 24.2563C44.5117 24.2648 44.5301 24.2732 44.5526 24.2817C44.5695 24.2901 44.5878 24.2986 44.6104 24.3098C44.6301 24.3183 44.6456 24.3282 44.6681 24.338C44.6878 24.3479 44.7062 24.3577 44.7259 24.3676C44.7456 24.3761 44.7611 24.3873 44.7836 24.3972C44.8034 24.407 44.8217 24.4183 44.8386 24.4282C44.8611 24.4395 44.8766 24.4493 44.8992 24.4592C44.9189 24.4719 44.9372 24.4831 44.9569 24.493C44.9767 24.5029 44.995 24.5169 45.0147 24.5282C45.0372 24.5395 45.0527 24.5536 45.0725 24.5634C45.095 24.5761 45.1133 24.5916 45.133 24.6015C45.1528 24.6156 45.1711 24.6297 45.1908 24.6423C45.2105 24.655 45.2288 24.6705 45.2486 24.6846C45.2683 24.6987 45.2866 24.7142 45.3063 24.7269C45.3261 24.7452 45.3444 24.7564 45.3641 24.7762C45.3838 24.7903 45.4021 24.8058 45.4219 24.8255C45.4416 24.8424 45.4599 24.8579 45.4796 24.8748C45.4993 24.8945 45.5177 24.9128 45.5374 24.9297C45.5599 24.9523 45.5782 24.9678 45.598 24.9875C45.6177 25.01 45.636 25.0284 45.6557 25.0509C45.6783 25.0734 45.6938 25.0946 45.7135 25.1171C45.7332 25.1397 45.7515 25.1636 45.7713 25.1862C45.7938 25.2129 45.8093 25.2383 45.829 25.265C45.8516 25.2918 45.8685 25.3158 45.8868 25.3454C45.9093 25.3749 45.9262 25.4073 45.9446 25.4341C45.9671 25.4637 45.984 25.4989 46.0023 25.5299C46.0249 25.5651 46.0418 25.6046 46.0629 25.6398C46.0826 25.6835 46.0995 25.7257 46.1207 25.7694C46.1432 25.8159 46.1601 25.8652 46.1784 25.9174C46.201 25.9779 46.2179 26.0413 46.2362 26.1075C46.2615 26.2005 46.2785 26.3006 46.294 26.3992C46.3109 26.5203 46.3193 26.6471 46.3193 26.7739C46.3193 26.9078 46.3109 27.0374 46.294 27.1586C46.2785 27.2628 46.2615 27.3643 46.2362 27.4615C46.2179 27.5277 46.201 27.5939 46.1784 27.6601C46.1601 27.7122 46.1432 27.7644 46.1207 27.8137C46.0995 27.8574 46.0854 27.901 46.0629 27.9461C46.0432 27.9842 46.0249 28.0222 46.0023 28.0588C45.984 28.094 45.9671 28.1279 45.9446 28.1603C45.9262 28.1899 45.9093 28.2237 45.8868 28.2533C45.8685 28.2814 45.8516 28.3082 45.829 28.3364C45.8093 28.3646 45.7938 28.3885 45.7713 28.4167C45.7515 28.4434 45.736 28.466 45.7135 28.4928C45.6938 28.5153 45.6755 28.535 45.6557 28.559C45.636 28.5829 45.6177 28.6012 45.598 28.6224C45.5782 28.6463 45.5599 28.6618 45.5374 28.683C45.5177 28.7041 45.5022 28.7196 45.4796 28.7407C45.4599 28.759 45.4444 28.7745 45.4219 28.7928C45.4021 28.8098 45.3838 28.8267 45.3641 28.845C45.3444 28.8619 45.3261 28.876 45.3063 28.8901C45.2866 28.9084 45.2683 28.9196 45.2486 28.9365C45.2288 28.9535 45.2105 28.9661 45.1908 28.9802C45.1711 28.9971 45.1528 29.0098 45.133 29.0239C45.1133 29.038 45.095 29.0521 45.0725 29.0619C45.0556 29.076 45.0372 29.0901 45.0147 29.0986C44.995 29.1112 44.9795 29.1253 44.9569 29.1324C44.9372 29.1451 44.9189 29.1591 44.8992 29.1676C44.8794 29.1789 44.8611 29.1901 44.8386 29.2C44.8217 29.2113 44.8034 29.2225 44.7836 29.2296C44.7611 29.2409 44.7456 29.2521 44.7259 29.2606C44.7062 29.269 44.6878 29.2817 44.6681 29.2902C44.6456 29.3014 44.6301 29.3127 44.6104 29.3198C44.5878 29.3282 44.5723 29.3395 44.5526 29.3479C44.5301 29.3564 44.5146 29.3648 44.492 29.3747C44.4723 29.3832 44.454 29.3916 44.4342 29.4015C44.4145 29.4099 44.3962 29.4184 44.3765 29.4268C44.3568 29.4353 44.3384 29.4437 44.3187 29.4522C44.299 29.4606 44.2807 29.4663 44.261 29.4747C44.2412 29.4804 44.2229 29.4902 44.2032 29.4959C44.1835 29.5043 44.1652 29.51 44.1454 29.517C44.1257 29.5226 44.1074 29.5311 44.0877 29.5367L44.0299 29.5452C44.0074 29.5508 43.9919 29.5564 43.9721 29.5621C43.9496 29.5677 43.9341 29.5762 43.9116 29.579C43.8918 29.5846 43.8749 29.5903 43.8538 29.5973C43.8341 29.6029 43.8186 29.6058 43.796 29.6114C43.7763 29.617 43.758 29.6198 43.7383 29.6269C43.7157 29.6325 43.7002 29.6353 43.6805 29.641L43.6199 29.6523C43.6002 29.6551 43.5847 29.6635 43.5622 29.6663C43.5424 29.6692 43.5269 29.672 43.5044 29.6776L43.4466 29.6861L43.3889 29.6973C43.3691 29.7002 43.3537 29.703 43.3311 29.7058C43.3114 29.7086 43.2959 29.7114 43.2733 29.7142C43.2536 29.7171 43.2353 29.7213 43.2156 29.7241L43.155 29.7297C43.1353 29.7326 43.1198 29.7354 43.0972 29.7354C43.0775 29.7382 43.062 29.741 43.0395 29.741L42.9817 29.7396L42.9239 29.7452L42.8662 29.7481L42.8084 29.7509L42.7281 29.7593C42.7084 29.7621 42.6915 29.7621 42.6675 29.7621C42.6478 29.7621 42.6309 29.7621 42.6098 29.765H42.552H42.4942H42.4661H42.4379H42.3801H42.3224H42.2646H42.2068H42.1491H42.0913H42.0335H41.9758H41.918H41.8574H41.7997H41.7419H41.6841H41.6292H41.5714H41.5137H41.4559H41.3981H41.3404H41.2826H41.2249H41.1643H41.1079H41.0502H40.9924H40.9346H40.8769H40.8163H40.7585H40.7008H40.643H40.5852H40.5303H40.4697H40.4148H40.357H40.2964H40.2387H40.1809H40.1231H40.0654H40.0104H39.9527H39.8949H39.8371H39.7794H39.7216H39.6624H39.6047H39.5469H39.4891H39.4314H39.3708H39.313H39.2553H39.1975H39.1397H39.082H39.0242H38.9664H38.9087H38.8509H38.7932H38.7354H38.6748H38.617H38.5593H38.5015H38.4438H38.386H38.3325H38.2747H38.2169H38.1592H38.1014H38.0436H37.9859H37.9281H37.8675H37.8098H37.7548H37.6971H37.6393H37.5815H37.5238H37.466H37.4054H37.3463H37.2885H37.2335H37.173H37.1152H37.0574H36.9997H36.9419H36.8841H36.8264H36.7686H36.7109H36.6531H36.5953H36.5404H36.4826H36.4249H36.3629H36.3065H36.2487H36.191H36.136H36.0755H36.0177H35.9599H35.9008H35.8416H35.781H35.7232H35.6655H35.6105H35.5528H35.495H35.4372H35.3795H35.3217H35.264H35.2062H35.1484H35.0907H35.0329H34.9751H34.9174H34.8596H34.8018H34.7441H34.6863H34.6257H34.568H34.5116H34.4567H34.3989H34.3411H34.2834H34.2256H34.1679H34.1101H34.0523H33.9917H33.9368H33.879H33.8213H33.7607H33.7029H33.6452H33.5874H33.5296H33.4705H33.4127H33.3578H33.2972H33.1746V41.9798H33.2986H33.3592H33.4169H33.4747H33.5325H33.5902H33.648H33.7057H33.7635H33.8241H33.8819H33.9396H33.9974H34.0551H34.1129H34.1707H34.2284H34.289H34.3468H34.4045H34.4623H34.5201H34.5778H34.6356H34.6934H34.7511H34.8089H34.8667H34.9244H34.985H35.0428H35.1005H35.1583H35.2161H35.2766H35.3344H35.3908H35.4485H35.5063H35.564H35.6218H35.6796H35.7373H35.7951H35.8529H35.9106H35.9712H36.029H36.0867H36.1445H36.2023H36.26H36.3178H36.3755H36.4361H36.4939H36.5517H36.6094H36.6672H36.7249H36.7827H36.8405H36.8982H36.956H37.0166H37.0743H37.1321H37.1899H37.2307H37.2885H37.3463H37.404H37.4646H37.5224H37.5801H37.6379H37.6957H37.7534H37.8112H37.8689H37.9295H37.9873H38.0451H38.1028H38.1606H38.2183H38.2761H38.3339H38.3944H38.4522H38.51H38.5677H38.6255H38.6833H38.7453H38.803H38.8608H38.9185H38.9763H39.0341H39.0918H39.1524H39.2102H39.2679H39.3257H39.3835H39.4412H39.499H39.5568H39.6145H39.6723H39.7301H39.7878H39.8456H39.9033H39.9611H40.0189H40.0766H40.1344H40.1922H40.2499H40.3077H40.3654H40.4232H40.481H40.5416H40.5993H40.6571H40.7163H40.774H40.8318H40.8924H40.9501H41.0079H41.0657H41.1234H41.1812H41.2389H41.2967H41.3545H41.4122H41.47H41.5306H41.5883H41.6461H41.7053H41.763H41.8208H41.8772H41.9363H41.9814H41.9927H42.0505C42.0716 41.9798 42.0885 41.9798 42.1082 41.9798L42.166 41.977H42.2237C42.2449 41.977 42.2646 41.977 42.2843 41.9742C42.3026 41.9742 42.3224 41.9742 42.3421 41.9714L42.3998 41.9685C42.421 41.9685 42.4379 41.9657 42.4576 41.9657C42.4787 41.9629 42.4957 41.9629 42.5154 41.9601C42.5365 41.9573 42.5562 41.9573 42.5731 41.9516C42.5943 41.9516 42.6098 41.9488 42.6309 41.9488C42.652 41.946 42.6675 41.9432 42.6887 41.9404C42.7098 41.9404 42.7253 41.9375 42.7492 41.9347C42.7676 41.9319 42.7859 41.9291 42.807 41.9291L42.8648 41.9178L42.9225 41.9094L42.9803 41.9009C43.0014 41.8981 43.0169 41.8953 43.0381 41.8911C43.0592 41.8882 43.0747 41.8854 43.0958 41.8798L43.1536 41.8685L43.2142 41.8558C43.2353 41.8502 43.2508 41.8474 43.2719 41.8417C43.2931 41.8389 43.3086 41.8333 43.3297 41.8277L43.3875 41.8136L43.4452 41.7995L43.503 41.7826C43.5241 41.7798 43.5396 41.7741 43.5608 41.7671C43.5819 41.7614 43.5974 41.7558 43.6185 41.7502C43.6396 41.7431 43.6551 41.7403 43.6791 41.7319L43.7369 41.7149C43.758 41.7093 43.7735 41.7037 43.7946 41.698L43.8524 41.6783C43.8735 41.6699 43.889 41.6642 43.9102 41.6586C43.9299 41.6515 43.9468 41.6431 43.9707 41.6375C43.9919 41.629 44.0074 41.622 44.0285 41.6135L44.0863 41.5938C44.1032 41.5853 44.1229 41.5769 44.144 41.5684C44.1637 41.5628 44.1807 41.5543 44.2018 41.5459C44.2215 41.5374 44.2384 41.529 44.2596 41.5191C44.2793 41.5135 44.2962 41.5036 44.3173 41.4952C44.337 41.4867 44.3539 41.4783 44.3751 41.4684C44.3948 41.4585 44.4117 41.4501 44.4328 41.4416L44.4906 41.4134L44.5512 41.3839C44.5681 41.3754 44.5878 41.367 44.6089 41.3585C44.6287 41.3472 44.6456 41.336 44.6667 41.3289C44.6864 41.3176 44.7033 41.3092 44.7245 41.2993C44.7442 41.2895 44.7611 41.2768 44.7808 41.2697C44.802 41.2571 44.8189 41.2486 44.8386 41.2402C44.8597 41.2275 44.8766 41.2162 44.8964 41.2106C44.9175 41.1993 44.9344 41.188 44.9541 41.1782C44.9753 41.1683 44.995 41.1556 45.0147 41.1458L45.0725 41.1148C45.0936 41.1035 45.1105 41.088 45.1302 41.081C45.1514 41.0697 45.1683 41.0556 45.188 41.0457C45.2091 41.0345 45.226 41.0204 45.2458 41.0105C45.2669 40.9964 45.2838 40.9852 45.3035 40.9725C45.3246 40.9612 45.3416 40.9471 45.3613 40.9358C45.3824 40.9246 45.3993 40.9091 45.419 40.8964C45.4402 40.8837 45.4571 40.8696 45.4796 40.8584C45.4979 40.8443 45.5177 40.8288 45.5374 40.8175C45.5585 40.8034 45.5754 40.7879 45.5952 40.7766C45.6163 40.7597 45.6332 40.7471 45.6529 40.7301C45.674 40.7161 45.691 40.7006 45.7107 40.6865C45.7318 40.6696 45.7515 40.6569 45.7713 40.6414C45.7924 40.6231 45.8079 40.6104 45.829 40.5949C45.8473 40.578 45.8657 40.5639 45.8868 40.547C45.9079 40.5287 45.9248 40.5146 45.9446 40.4977C45.9657 40.4794 45.9826 40.4653 46.0023 40.4456C46.0234 40.4287 46.0375 40.4132 46.0601 40.3934C46.0812 40.3737 46.0981 40.3582 46.1178 40.3385C46.139 40.3188 46.1559 40.3033 46.1756 40.2835C46.1967 40.2638 46.2136 40.2455 46.2334 40.2286C46.2545 40.2061 46.2714 40.1877 46.2911 40.168C46.3123 40.1483 46.3292 40.13 46.3489 40.1102C46.37 40.0877 46.3869 40.0694 46.4095 40.0497C46.4278 40.0243 46.4447 40.006 46.4672 39.9863C46.4884 39.9609 46.5053 39.9426 46.525 39.9172C46.5461 39.8947 46.563 39.8736 46.5828 39.851C46.6039 39.8271 46.6208 39.8045 46.6405 39.782C46.6617 39.7552 46.6786 39.7327 46.6983 39.7087C46.718 39.682 46.7363 39.6608 46.7561 39.6341C46.7758 39.6073 46.7941 39.5819 46.8138 39.5552C46.8335 39.527 46.8519 39.503 46.8744 39.4748C46.8941 39.4467 46.9096 39.4199 46.9322 39.3917C46.9519 39.3636 46.9674 39.3368 46.9899 39.3058C47.0097 39.2762 47.0252 39.248 47.0477 39.2184C47.0674 39.1889 47.0857 39.1579 47.1055 39.1283C47.1252 39.0959 47.1435 39.0649 47.1632 39.0325C47.1829 39.0015 47.1984 38.9663 47.221 38.9353C47.2407 38.9014 47.2562 38.8648 47.2787 38.831C47.2985 38.7972 47.3168 38.7592 47.3365 38.7225C47.3562 38.6845 47.3745 38.6436 47.3943 38.607C47.414 38.5661 47.4323 38.5253 47.452 38.4858C47.4746 38.4422 47.4901 38.3985 47.5098 38.3548C47.5295 38.3097 47.5478 38.2632 47.5704 38.2125C47.5901 38.1632 47.6056 38.1153 47.6267 38.066C47.6479 38.011 47.6662 37.9575 47.6831 37.9026C47.7056 37.8448 47.7239 37.7814 47.7409 37.7194C47.7634 37.6532 47.7817 37.5842 47.7986 37.5137C47.8212 37.4334 47.8395 37.3559 47.8564 37.2742C47.8817 37.177 47.8972 37.0727 47.917 36.9741C47.9423 36.8248 47.9606 36.6712 47.9747 36.5176C47.9916 36.3415 48.0001 36.1654 48.0001 35.9865V6.01855H47.9747Z" fill="#6F8BB5"/>
<path d="M41.1784 25.9415C41.1615 25.8725 41.1474 25.8091 41.1206 25.7428C41.1037 25.6992 41.0854 25.6527 41.0628 25.6076C41.0431 25.5724 41.029 25.5329 41.0051 25.4977C40.9853 25.4681 40.9713 25.4371 40.9473 25.4075C40.9276 25.3794 40.9093 25.3526 40.8895 25.3272C40.8698 25.3047 40.8557 25.2807 40.8318 25.2582C40.8121 25.2356 40.7951 25.2145 40.774 25.1948C40.7543 25.1751 40.7374 25.1568 40.7134 25.1398C40.6937 25.1201 40.6768 25.1074 40.6557 25.0877C40.6359 25.0736 40.619 25.0581 40.5979 25.044C40.5782 25.03 40.5613 25.0159 40.5401 25.0032C40.5204 24.9919 40.5035 24.975 40.4824 24.9666C40.4627 24.9539 40.4457 24.9426 40.4246 24.9356C40.4021 24.9229 40.388 24.9116 40.3669 24.906C40.3443 24.8975 40.3302 24.8863 40.3063 24.8778C40.2865 24.8693 40.2696 24.8595 40.2485 24.851C40.2288 24.8426 40.2119 24.8327 40.1907 24.8271C40.171 24.8186 40.1541 24.813 40.133 24.8045C40.1133 24.8017 40.0963 24.7933 40.0752 24.7876C40.0555 24.782 40.0386 24.7792 40.0175 24.7735L39.9921 24.7679C39.9808 24.7651 39.9696 24.7623 39.9597 24.7623C39.9428 24.7595 39.9231 24.7566 39.9019 24.7538C39.8822 24.751 39.8653 24.7482 39.8442 24.744C39.8216 24.744 39.8075 24.7411 39.7864 24.7411C39.7667 24.7383 39.7498 24.7355 39.7286 24.7355C39.7089 24.7327 39.6892 24.7327 39.6709 24.7299C39.6483 24.7299 39.6314 24.7299 39.6131 24.7271H39.6018H39.5553H39.4976H39.4314H39.3708H39.313H39.2553H39.1975H39.1397H39.082H39.0242H38.9664H38.9087H38.8537H38.7931H38.7354H38.6776H38.6199H38.5635H38.5057H38.448H38.3902H38.3325H38.2747H38.2169H38.1592H38.1014H38.0436H37.9859H37.9253H37.8675H37.8098H37.7548H37.6971H37.6393H37.5815H37.5238H37.466H37.4082H37.3505H37.2899H37.2335H37.1758H37.118H37.0602H36.9997H36.9419H36.8841H36.8264H36.7686H36.7108H36.6559H36.5981H36.5404H36.4826H36.4248H36.3629H36.3065H36.2487H36.191H36.136H36.1064V27.8956H36.136H36.1966H36.2544H36.3121H36.3699H36.4277H36.4854H36.546H36.6038H36.6615H36.7193H36.7771H36.8348H36.8954H36.9532H37.0109H37.0687H37.1265H37.1842H37.2335H37.2913H37.3491H37.4068H37.4646H37.5224H37.5801H37.6379H37.6985H37.7562H37.814H37.8718H37.9295H37.9873H38.045H38.1028H38.1606H38.2197H38.2803H38.3381H38.3959H38.4536H38.5114H38.5691H38.6269H38.6847H38.7424H38.8002H38.8608H38.9185H38.9763H39.0341H39.0904H39.1482H39.2059H39.2637H39.3215H39.3792H39.4398H39.4976H39.5553H39.5821H39.6131C39.6314 27.8956 39.6483 27.8914 39.6709 27.8914C39.6892 27.8885 39.7089 27.8885 39.7286 27.8857C39.7498 27.8857 39.7667 27.8829 39.7864 27.8829C39.8075 27.8801 39.8216 27.8801 39.8442 27.8773C39.8653 27.8745 39.8822 27.8716 39.9019 27.8688C39.9231 27.866 39.9428 27.8632 39.9597 27.8604C39.9724 27.8575 39.9836 27.8547 39.9921 27.8519L40.0175 27.8463C40.0386 27.8435 40.0527 27.8378 40.0752 27.8322C40.0963 27.8265 40.1133 27.8209 40.133 27.8153C40.1541 27.8096 40.171 27.7998 40.1907 27.7941C40.2119 27.7857 40.2288 27.7801 40.2485 27.7702C40.2696 27.7617 40.2865 27.7533 40.3063 27.7448C40.3274 27.7336 40.3443 27.7251 40.3669 27.7153C40.388 27.704 40.4021 27.6955 40.4246 27.6857C40.4429 27.6744 40.4627 27.6631 40.4824 27.6533C40.5035 27.642 40.5204 27.6279 40.5401 27.6166C40.5613 27.6054 40.5782 27.5899 40.5979 27.5772C40.619 27.5617 40.6359 27.5476 40.6557 27.5335C40.6768 27.5166 40.6937 27.5011 40.7134 27.4842C40.7332 27.4645 40.7515 27.4462 40.774 27.4264C40.7951 27.4039 40.8121 27.3856 40.8318 27.3659C40.8529 27.3405 40.8698 27.3194 40.8895 27.294C40.9093 27.2672 40.9276 27.2419 40.9473 27.2123C40.9713 27.1827 40.9853 27.1517 41.0051 27.1235C41.029 27.0883 41.0431 27.0517 41.0628 27.0165C41.0854 26.97 41.1037 26.9263 41.1206 26.8756C41.1474 26.8122 41.1615 26.7488 41.1784 26.6783C41.2079 26.5628 41.2192 26.4388 41.2192 26.3092C41.2192 26.1796 41.2051 26.0542 41.1784 25.9415Z" fill="#6F8BB5"/>
<path d="M40.7796 21.157C40.7655 21.0894 40.7486 21.0231 40.7218 20.9612C40.7021 20.9147 40.688 20.871 40.6641 20.8273C40.6472 20.7921 40.6274 20.7569 40.6063 20.7231C40.5866 20.6935 40.5697 20.6639 40.5485 20.6357C40.5288 20.6103 40.5119 20.5864 40.4908 20.561C40.471 20.5385 40.4541 20.5174 40.433 20.4962C40.4133 20.4751 40.3964 20.4568 40.3752 20.4385C40.3555 20.4202 40.3386 20.4032 40.3175 20.3863C40.2978 20.3694 40.2809 20.3539 40.2569 20.3398C40.24 20.3258 40.2203 20.3103 40.1991 20.2976C40.1794 20.2835 40.1625 20.2708 40.1414 20.2595C40.1217 20.2483 40.1047 20.237 40.0836 20.2257C40.0639 20.2159 40.047 20.2046 40.0258 20.1961C40.0061 20.1849 39.9892 20.1764 39.9681 20.168C39.9484 20.1595 39.9315 20.1497 39.9103 20.1426C39.8906 20.1356 39.8709 20.1285 39.8526 20.1215C39.8328 20.1144 39.8159 20.1074 39.7948 20.1017C39.7723 20.0961 39.7553 20.0905 39.7342 20.0863C39.7145 20.0806 39.6976 20.075 39.6765 20.0722C39.6595 20.0665 39.6398 20.0623 39.6201 20.0595L39.6046 20.0567C39.5933 20.0553 39.5821 20.0524 39.5623 20.051C39.544 20.0496 39.5271 20.0468 39.5046 20.0454C39.4834 20.0426 39.4665 20.0412 39.4468 20.0398C39.4257 20.0384 39.4088 20.0369 39.389 20.0355C39.3679 20.0341 39.351 20.0327 39.3313 20.0327H39.2961H39.2735H39.2158H39.158H39.0974H39.0396H38.9819H38.9241H38.8649H38.8044H38.7466H38.6888H38.6311H38.5733H38.5127H38.455H38.3972H38.3394H38.2817H38.2239H38.1633H38.1056H38.0478H37.99H37.9323H37.8745H37.8139H37.7562H37.6984H37.6406H37.5829H37.5251H37.4645H37.4068H37.349H37.2912H37.2335H37.1814H37.1236H37.0658H37.0052H36.9475H36.8925H36.8348H36.7742H36.715H36.6573H36.5995H36.5417H36.484H36.4262H36.3656H36.3079H36.2501H36.1923H36.1346H36.105V22.9491H36.1346H36.136V22.9533H36.1937H36.2515H36.3093H36.367H36.4248H36.4826H36.5403H36.5981H36.6558H36.7108H36.7686H36.8263H36.8841H36.9418H36.9996H37.0602H37.118H37.1757H37.2335H37.2884H37.3462H37.4054H37.4631H37.5237H37.5815H37.6392H37.697H37.7548H37.8041H37.8647H37.9224H37.9802H38.0379H38.0957H38.1535H38.214H38.2718H38.3296H38.3873H38.4437H38.5015H38.562H38.6198H38.6776H38.7353H38.7931H38.8537H38.9241H38.9819H39.0396H39.0974H39.158H39.2158H39.2637H39.2735C39.2904 22.9533 39.3101 22.9533 39.3313 22.9533C39.351 22.9533 39.3679 22.9505 39.389 22.9505C39.4088 22.9477 39.4257 22.9477 39.4468 22.9448C39.4665 22.9448 39.4834 22.942 39.5046 22.9392C39.5271 22.9392 39.544 22.9364 39.5623 22.9336C39.5764 22.9307 39.5933 22.9293 39.6046 22.9279L39.6201 22.9251C39.6398 22.9209 39.6595 22.9181 39.6765 22.9138C39.6976 22.9096 39.7145 22.9054 39.7342 22.8998C39.7553 22.8941 39.7751 22.8885 39.7948 22.8828C39.8159 22.8772 39.8328 22.8702 39.8526 22.8645C39.8737 22.8575 39.8906 22.849 39.9103 22.842C39.9315 22.8335 39.9484 22.8265 39.9681 22.818C39.9892 22.8096 40.0061 22.7983 40.0258 22.7899C40.047 22.7814 40.0639 22.7701 40.0836 22.7603C40.1047 22.7504 40.1217 22.7377 40.1414 22.7265C40.1625 22.7152 40.1794 22.7025 40.1991 22.6898C40.2203 22.6772 40.24 22.6617 40.2569 22.6476C40.2809 22.6321 40.2978 22.618 40.3175 22.6011C40.3386 22.5828 40.3555 22.5673 40.3752 22.5489C40.3964 22.5306 40.4133 22.5109 40.433 22.4912C40.4541 22.4715 40.471 22.4489 40.4908 22.4264C40.5119 22.4024 40.5288 22.3771 40.5485 22.3517C40.5697 22.3235 40.5866 22.2939 40.6063 22.2644C40.6274 22.2305 40.6472 22.1953 40.6641 22.1601C40.688 22.1178 40.7049 22.0727 40.7218 22.0277C40.7486 21.9643 40.7655 21.8981 40.7796 21.8304C40.8007 21.7248 40.8148 21.6106 40.8148 21.4937C40.8148 21.3754 40.8064 21.2627 40.7796 21.157Z" fill="#6F8BB5"/>
</svg>
