<svg width="48" height="48" viewBox="0 0 48 48" fill="none" xmlns="http://www.w3.org/2000/svg">
<path d="M19.2195 16.8574L16.78 31.1729H20.6815L23.123 16.8574H19.2195Z" fill="#6F8BB5"/>
<path d="M13.5088 16.8731L9.68759 26.6359L9.28018 25.1618C8.52657 23.3856 6.38717 20.8348 3.87549 19.2273L7.36957 31.1656L11.4978 31.1585L17.6421 16.8701L13.5088 16.8731Z" fill="#6F8BB5"/>
<path d="M7.79897 17.8979C7.57219 17.0259 6.91491 16.766 6.09909 16.7349H0.0501735L0 17.0198C4.70728 18.1618 7.82205 20.9133 9.11452 24.2218L7.79897 17.8979Z" fill="#6F8BB5"/>
<path d="M31.0304 19.6017C32.3068 19.5816 33.232 19.8606 33.9505 20.1496L34.3027 20.3151L34.8305 17.2124C34.0579 16.9224 32.8467 16.6113 31.3354 16.6113C27.4801 16.6113 24.7627 18.553 24.7416 21.3357C24.7166 23.3918 26.6773 24.5397 28.1585 25.2251C29.6787 25.9275 30.1885 26.3741 30.1815 27.0013C30.1694 27.9596 28.9693 28.3991 27.8484 28.3991C26.286 28.3991 25.4561 28.1833 24.1747 27.6495L23.6719 27.4207L23.123 30.6248C24.0362 31.0252 25.721 31.3694 27.4701 31.3874C31.5713 31.3874 34.2365 29.4688 34.2646 26.4955C34.2816 24.8689 33.241 23.6276 30.9862 22.6091C29.6215 21.9448 28.7866 21.5032 28.7947 20.8329C28.7947 20.2379 29.5031 19.6017 31.0304 19.6017Z" fill="#6F8BB5"/>
<path d="M44.843 16.8735H41.8286C40.8923 16.8735 40.1959 17.1284 39.7845 18.0616L33.9915 31.181H38.0886C38.0886 31.181 38.7569 29.4169 38.9085 29.0306C39.357 29.0306 43.3378 29.0366 43.9047 29.0366C44.0211 29.5363 44.3804 31.181 44.3804 31.181H47.9999L44.843 16.8735ZM40.0313 26.1004C40.3525 25.2786 41.5857 22.0996 41.5857 22.0996C41.5646 22.1387 41.9038 21.2717 42.1055 20.7329L42.3684 21.9672C42.3684 21.9672 43.116 25.385 43.2726 26.1004H40.0313Z" fill="#6F8BB5"/>
</svg>
