<svg width="17" height="17" viewBox="0 0 17 17" fill="none" xmlns="http://www.w3.org/2000/svg">
<path fill-rule="evenodd" clip-rule="evenodd" d="M6.375 2.125H2.125V14.875H14.875V10.625H10.625C8.27779 10.625 6.375 8.72221 6.375 6.375V2.125ZM6.375 0C7.5486 0 8.5 0.951395 8.5 2.125V6.375C8.5 7.5486 9.4514 8.5 10.625 8.5H14.875C16.0486 8.5 17 9.4514 17 10.625V14.875C17 16.0486 16.0486 17 14.875 17H2.125C0.951395 17 0 16.0486 0 14.875V2.125C0 0.951395 0.951395 0 2.125 0H6.375Z" fill="#303548"/>
<path fill-rule="evenodd" clip-rule="evenodd" d="M0 4.25C0 3.6632 0.475697 3.1875 1.0625 3.1875H3.1875C3.7743 3.1875 4.25 3.6632 4.25 4.25C4.25 4.8368 3.7743 5.3125 3.1875 5.3125H1.0625C0.475697 5.3125 0 4.8368 0 4.25Z" fill="#303548"/>
<path fill-rule="evenodd" clip-rule="evenodd" d="M5.66667 17C5.07986 17 4.60417 16.5243 4.60417 15.9375V13.8125C4.60417 13.2257 5.07986 12.75 5.66667 12.75C6.25347 12.75 6.72917 13.2257 6.72917 13.8125V15.9375C6.72917 16.5243 6.25347 17 5.66667 17Z" fill="#303548"/>
<path fill-rule="evenodd" clip-rule="evenodd" d="M0 7.61458C0 7.02778 0.475697 6.55208 1.0625 6.55208H4.25C4.8368 6.55208 5.3125 7.02778 5.3125 7.61458C5.3125 8.20139 4.8368 8.67708 4.25 8.67708H1.0625C0.475697 8.67708 0 8.20139 0 7.61458Z" fill="#303548"/>
<path fill-rule="evenodd" clip-rule="evenodd" d="M9.20833 17C8.62153 17 8.14583 16.5243 8.14583 15.9375V12.75C8.14583 12.1632 8.62153 11.6875 9.20833 11.6875C9.79514 11.6875 10.2708 12.1632 10.2708 12.75V15.9375C10.2708 16.5243 9.79514 17 9.20833 17Z" fill="#303548"/>
<path fill-rule="evenodd" clip-rule="evenodd" d="M0 11.1562C0 10.5694 0.475697 10.0938 1.0625 10.0938H3.1875C3.7743 10.0938 4.25 10.5694 4.25 11.1562C4.25 11.7431 3.7743 12.2188 3.1875 12.2188H1.0625C0.475697 12.2188 0 11.7431 0 11.1562Z" fill="#303548"/>
<path fill-rule="evenodd" clip-rule="evenodd" d="M12.75 17C12.1632 17 11.6875 16.5243 11.6875 15.9375V13.8125C11.6875 13.2257 12.1632 12.75 12.75 12.75C13.3368 12.75 13.8125 13.2257 13.8125 13.8125V15.9375C13.8125 16.5243 13.3368 17 12.75 17Z" fill="#303548"/>
<path fill-rule="evenodd" clip-rule="evenodd" d="M11.6875 1.0625C11.6875 0.475697 12.1632 0 12.75 0H15.9375C16.5243 0 17 0.475697 17 1.0625V4.25C17 4.8368 16.5243 5.3125 15.9375 5.3125C15.3507 5.3125 14.875 4.8368 14.875 4.25V3.6276L11.9075 6.59505C11.4926 7.00998 10.8199 7.00998 10.4049 6.59505C9.99002 6.18012 9.99002 5.50738 10.4049 5.09245L13.3724 2.125H12.75C12.1632 2.125 11.6875 1.6493 11.6875 1.0625Z" fill="#303548"/>
</svg>
