<svg width="154" height="28" viewBox="0 0 154 28" fill="none" xmlns="http://www.w3.org/2000/svg">
<path d="M56.765 23.8955H51.689V8.97381H44.3598V23.8955H39.2837V4.76123H56.765V23.8955Z" fill="#303548"/>
<path d="M65.1045 10.8771V18.1603L70.6726 10.8771H75.3602V23.8955H70.6726V16.6377L65.0786 23.8955H60.4169V10.8771H65.1045Z" fill="#303548"/>
<path d="M87.1484 10.8771H92.1468L86.8894 17.1198L92.846 23.8955H87.4851L83.2637 18.6932V23.8955H78.5761V10.8771H83.2637V16.1047L87.1484 10.8771Z" fill="#303548"/>
<path d="M104.507 15.0897C103.695 14.5483 102.875 14.2776 102.047 14.2776C101.598 14.2776 101.175 14.3537 100.778 14.506C100.398 14.6583 100.061 14.8782 99.7676 15.1658C99.4741 15.4365 99.241 15.7664 99.0683 16.1555C98.9129 16.5277 98.8352 16.9506 98.8352 17.4243C98.8352 17.8811 98.9129 18.3041 99.0683 18.6932C99.241 19.0654 99.4654 19.3953 99.7417 19.6829C100.035 19.9536 100.381 20.1651 100.778 20.3173C101.175 20.4696 101.598 20.5457 102.047 20.5457C102.927 20.5457 103.747 20.2497 104.507 19.6575V23.5656C103.35 24.0562 102.254 24.3015 101.218 24.3015C100.251 24.3015 99.3273 24.1408 98.4468 23.8193C97.5835 23.4979 96.8152 23.0411 96.1418 22.449C95.4857 21.8399 94.9591 21.1209 94.562 20.2919C94.1649 19.446 93.9664 18.5071 93.9664 17.4751C93.9664 16.4431 94.1563 15.5042 94.5361 14.6583C94.916 13.7954 95.4339 13.0595 96.09 12.4505C96.7461 11.8245 97.5231 11.3423 98.4209 11.004C99.3359 10.6487 100.311 10.4711 101.347 10.4711C102.487 10.4711 103.54 10.7079 104.507 11.1816V15.0897Z" fill="#303548"/>
<path d="M116.892 15.4957C116.737 14.8528 116.418 14.3368 115.934 13.9477C115.451 13.5586 114.864 13.364 114.173 13.364C113.448 13.364 112.852 13.5501 112.386 13.9223C111.937 14.2945 111.652 14.819 111.531 15.4957H116.892ZM111.402 18.1603C111.402 20.1397 112.352 21.1294 114.251 21.1294C115.269 21.1294 116.038 20.7234 116.556 19.9113H121.088C120.173 22.8889 117.885 24.3776 114.225 24.3776C113.103 24.3776 112.075 24.2169 111.143 23.8955C110.211 23.5571 109.408 23.0834 108.734 22.4744C108.078 21.8653 107.569 21.1378 107.206 20.2919C106.844 19.446 106.663 18.4986 106.663 17.4497C106.663 16.367 106.835 15.3942 107.181 14.5314C107.526 13.6516 108.018 12.9072 108.657 12.2982C109.296 11.6891 110.064 11.2239 110.962 10.9025C111.877 10.5641 112.904 10.3949 114.044 10.3949C115.166 10.3949 116.176 10.5641 117.074 10.9025C117.972 11.2239 118.731 11.6976 119.353 12.3236C119.974 12.9495 120.449 13.7193 120.777 14.6329C121.105 15.5295 121.269 16.5446 121.269 17.6781V18.1603H111.402Z" fill="#303548"/>
<path d="M123.327 20.1143C123.379 20.1312 123.457 20.1397 123.56 20.1397C123.785 20.1397 123.983 20.1228 124.156 20.0889C124.329 20.0551 124.467 19.9874 124.57 19.8859C124.674 19.7675 124.752 19.5983 124.803 19.3784C124.855 19.1584 124.881 18.8708 124.881 18.5156V10.8771H137.83V23.8955H133.143V14.709H129.569V19.0231C129.569 19.9536 129.422 20.7572 129.128 21.4339C128.852 22.1106 128.464 22.6689 127.963 23.1088C127.462 23.5487 126.849 23.8701 126.124 24.0731C125.416 24.2931 124.639 24.403 123.793 24.403H123.327V20.1143Z" fill="#303548"/>
<path d="M145.759 20.5965H147.572C148.504 20.5965 148.971 20.1651 148.971 19.3022C148.971 18.4733 148.504 18.0588 147.572 18.0588H145.759V20.5965ZM145.759 10.8771V14.7344H148.504C150.093 14.7344 151.301 15.0981 152.13 15.8256C152.959 16.5362 153.373 17.5766 153.373 18.947C153.373 19.6914 153.261 20.3681 153.037 20.9771C152.812 21.5693 152.475 22.0853 152.027 22.5251C151.595 22.965 151.06 23.3034 150.421 23.5402C149.782 23.7771 149.04 23.8955 148.194 23.8955H141.072V10.8771H145.759Z" fill="#303548"/>
<path fill-rule="evenodd" clip-rule="evenodd" d="M2.37288 0C1.06238 0 0 1.06238 0 2.37288V9.9661C0 11.2766 1.06238 12.339 2.37288 12.339H6.64407V11.3898C6.64407 8.24461 9.19377 5.69492 12.339 5.69492V2.37288C12.339 1.06238 11.2766 0 9.9661 0H2.37288ZM21.3559 12.339V11.3898C21.3559 8.24461 18.8062 5.69492 15.661 5.69492V2.37288C15.661 1.06238 16.7234 0 18.0339 0H25.6271C26.9376 0 28 1.06238 28 2.37288V9.9661C28 11.2766 26.9376 12.339 25.6271 12.339H21.3559ZM21.3559 28V15.661H25.6271C26.9376 15.661 28 16.7234 28 18.0339V25.6271C28 26.9376 26.9376 28 25.6271 28H21.3559ZM6.64407 15.661V28H2.37288C1.06238 28 0 26.9376 0 25.6271V18.0339C0 16.7234 1.06238 15.661 2.37288 15.661H6.64407Z" fill="#9290F4"/>
</svg>
