<svg width="33" height="33" viewBox="0 0 33 33" fill="none" xmlns="http://www.w3.org/2000/svg">
<path fill-rule="evenodd" clip-rule="evenodd" d="M16.5 2.75C14.9813 2.75 13.7501 3.98122 13.7501 5.5C13.7501 5.70397 13.6117 5.88112 13.4159 5.93821C12.6434 6.16341 11.9061 6.47105 11.214 6.85098C11.0347 6.94942 10.811 6.9219 10.6664 6.77728C9.59243 5.70333 7.85122 5.70333 6.77728 6.77728C5.70334 7.85122 5.70334 9.59243 6.77728 10.6664C6.9219 10.811 6.9494 11.0347 6.85098 11.214C6.47107 11.906 6.16344 12.6433 5.93824 13.4158C5.88115 13.6116 5.70397 13.75 5.5 13.75C3.98122 13.75 2.75 14.9812 2.75 16.5C2.75 18.0188 3.98122 19.25 5.5 19.25C5.70397 19.25 5.88115 19.3883 5.93824 19.5843C6.16344 20.3566 6.47107 21.094 6.85098 21.7861C6.9494 21.9652 6.9219 22.1891 6.77728 22.3336C5.70334 23.4076 5.70334 25.1488 6.77728 26.2228C7.85122 27.2966 9.59243 27.2966 10.6664 26.2228C10.811 26.0781 11.0347 26.0506 11.214 26.1491C11.9061 26.529 12.6434 26.8366 13.4159 27.0618C13.6117 27.1188 13.7501 27.2961 13.7501 27.5C13.7501 29.0188 14.9813 30.25 16.5 30.25C18.0189 30.25 19.25 29.0188 19.25 27.5C19.25 27.2959 19.3885 27.1188 19.5843 27.0618C20.3568 26.8366 21.094 26.529 21.7859 26.1491C21.9652 26.0506 22.189 26.0781 22.3336 26.2228C23.4076 27.2966 25.1488 27.2966 26.2227 26.2228C27.2967 25.1488 27.2967 23.4076 26.2227 22.3336C26.0781 22.1891 26.0506 21.9652 26.149 21.7861C26.5289 21.094 26.8366 20.3566 27.0618 19.5843C27.1189 19.3883 27.296 19.25 27.5 19.25C29.0187 19.25 30.25 18.0188 30.25 16.5C30.25 14.9812 29.0187 13.75 27.5 13.75C27.296 13.75 27.1189 13.6116 27.0618 13.4158C26.8366 12.6433 26.5289 11.906 26.149 11.214C26.0506 11.0347 26.0781 10.811 26.2227 10.6664C27.2967 9.59243 27.2967 7.85122 26.2227 6.77728C25.1488 5.70333 23.4076 5.70333 22.3336 6.77728C22.189 6.9219 21.9652 6.94942 21.7859 6.85098C21.094 6.47109 20.3568 6.16346 19.5843 5.93828C19.3885 5.88118 19.25 5.70399 19.25 5.5C19.25 3.98122 18.0189 2.75 16.5 2.75ZM16.5002 20.625C18.7784 20.625 20.6252 18.7782 20.6252 16.5C20.6252 14.2218 18.7784 12.375 16.5002 12.375C14.2219 12.375 12.3752 14.2218 12.3752 16.5C12.3752 18.7782 14.2219 20.625 16.5002 20.625Z" fill="#303548"/>
</svg>
