<svg width="24" height="24" viewBox="0 0 24 24" fill="none" xmlns="http://www.w3.org/2000/svg">
<path fill-rule="evenodd" clip-rule="evenodd" d="M11.9998 18C16.1253 18 19.059 15.4076 20.7771 13.2486C21.373 12.4998 21.373 11.5002 20.7771 10.7514C19.059 8.59239 16.1253 6 11.9998 6C7.87432 6 4.94062 8.59238 3.22256 10.7514C2.62666 11.5002 2.62666 12.4998 3.22256 13.2486C4.94062 15.4076 7.87432 18 11.9998 18ZM22.3421 14.494C23.518 13.0163 23.518 10.9837 22.3421 9.506C20.4738 7.15826 17.0264 4 11.9998 4C6.97329 4 3.52588 7.15826 1.6576 9.506C0.481647 10.9837 0.481647 13.0163 1.6576 14.494C3.52588 16.8417 6.97329 20 11.9998 20C17.0264 20 20.4738 16.8417 22.3421 14.494Z" fill="#303548"/>
<path fill-rule="evenodd" clip-rule="evenodd" d="M14 12C14 13.1046 13.1046 14 12 14C10.8954 14 10 13.1046 10 12C10 11.9716 10.0006 11.9434 10.0018 11.9153C10.1577 11.9701 10.3253 12 10.5 12C11.3284 12 12 11.3284 12 10.5C12 10.3253 11.9701 10.1577 11.9153 10.0018C11.9434 10.0006 11.9716 10 12 10C13.1046 10 14 10.8954 14 12ZM16 12C16 14.2091 14.2091 16 12 16C9.79086 16 8 14.2091 8 12C8 9.79086 9.79086 8 12 8C14.2091 8 16 9.79086 16 12Z" fill="#303548"/>
</svg>
