<svg width="100" height="41" viewBox="0 0 100 41" fill="none" xmlns="http://www.w3.org/2000/svg">
<g clip-path="url(#clip0)">
<path d="M18.2813 5.28592C17.1094 6.67079 15.2344 7.76308 13.3594 7.60704C13.125 5.73454 14.043 3.745 15.1172 2.51618C16.2891 1.09229 18.3399 0.0780209 20 0C20.1953 1.95052 19.4336 3.86204 18.2813 5.28592ZM19.9805 7.97764C17.2656 7.8216 14.9414 9.51855 13.6524 9.51855C12.3438 9.51855 10.3711 8.05566 8.22267 8.09467C5.42971 8.13368 2.83205 9.71361 1.40627 12.2298C-1.52342 17.2621 0.64455 24.7131 3.47658 28.8092C4.8633 30.8378 6.52346 33.0614 8.71096 32.9834C10.7813 32.9053 11.6016 31.6375 14.1016 31.6375C16.6211 31.6375 17.3438 32.9833 19.5313 32.9443C21.7969 32.9053 23.2227 30.9158 24.6094 28.8873C26.1914 26.5856 26.836 24.3425 26.875 24.2255C26.836 24.1865 22.5 22.5285 22.461 17.5352C22.4219 13.3611 25.8789 11.3716 26.0352 11.2545C24.0821 8.36775 21.0352 8.05566 19.9805 7.97764ZM35.6641 2.32112V32.7298H40.3906V22.3335H46.9336C52.9102 22.3335 57.1094 18.2374 57.1094 12.3078C57.1094 6.37821 52.9883 2.32112 47.0899 2.32112H35.6641ZM40.3906 6.30019H45.8399C49.9414 6.30019 52.2852 8.48478 52.2852 12.3273C52.2852 16.1698 49.9414 18.3739 45.8203 18.3739H40.3906V6.30019ZM65.7422 32.9638C68.711 32.9638 71.4649 31.4619 72.7149 29.0823H72.8125V32.7298H77.1875V17.5937C77.1875 13.205 73.6719 10.3768 68.2617 10.3768C63.2422 10.3768 59.5313 13.2441 59.3946 17.1841H63.6524C64.0039 15.3116 65.7422 14.0828 68.125 14.0828C71.0156 14.0828 72.6367 15.4286 72.6367 17.9058V19.5833L66.7383 19.9343C61.25 20.2659 58.2813 22.509 58.2813 26.4101C58.2813 30.3501 61.3477 32.9638 65.7422 32.9638ZM67.0117 29.3554C64.4922 29.3554 62.8906 28.1461 62.8906 26.2931C62.8906 24.3815 64.4336 23.2697 67.3828 23.0942L72.6367 22.7626V24.4791C72.6367 27.3268 70.2149 29.3554 67.0117 29.3554ZM83.0274 41C87.6367 41 89.8047 39.2445 91.6992 33.9196L100 10.6694H95.1953L89.6289 28.6337H89.5313L83.9649 10.6694H79.0235L87.0313 32.8078L86.6016 34.1537C85.8789 36.4358 84.707 37.3135 82.6172 37.3135C82.2461 37.3135 81.5235 37.2745 81.2305 37.2355V40.883C81.5039 40.961 82.6758 41 83.0274 41Z" fill="#6F8BB5"/>
</g>
<defs>
<clipPath id="clip0">
<rect width="100" height="41" fill="white"/>
</clipPath>
</defs>
</svg>
