<svg width="80" height="36" viewBox="0 0 80 36" fill="none" xmlns="http://www.w3.org/2000/svg">
<path d="M39.2056 20.3606H40.4488V23.1209H41.347L42.9589 20.3606H44.318L42.3834 23.6002V23.6228L44.4333 27.1581H43.0283L41.3699 24.1922H40.4724V27.1581H39.2285V20.3599H39.2056V20.3606ZM47.2196 22.1629C48.7155 22.1629 49.9365 23.235 49.9365 24.7176C49.9365 26.2236 48.7391 27.273 47.2425 27.273C45.7452 27.273 44.5478 26.2236 44.5478 24.7176C44.5249 23.2123 45.7223 22.1629 47.2196 22.1629ZM50.9035 22.2764H52.078V26.1094H53.6211V22.2771H54.7949V26.1094H56.338V22.2771H57.5125V27.1581H50.9493V22.2764H50.9035ZM60.9902 22.1629C62.3945 22.1629 63.1775 23.1896 63.1775 24.4673C63.1737 24.6277 63.1583 24.7876 63.1317 24.9459H59.7463C59.8157 25.7897 60.4835 26.2463 61.2207 26.2463C61.7267 26.2463 62.2335 26.018 62.625 25.7216L63.1088 26.5887C62.6021 27.0213 61.842 27.2957 61.1284 27.2957C59.4929 27.2957 58.4802 26.1321 58.4802 24.7403C58.4802 23.2123 59.5158 22.1629 60.9902 22.1629ZM63.753 26.1321C64.352 26.0407 64.7893 25.5394 64.7893 23.8051V22.2771H68.3823V27.1581H67.1613V23.257H65.9639V23.8044C65.9639 25.9258 65.3884 27.1581 63.753 27.2035V26.1314V26.1321ZM71.8822 22.1629C73.2865 22.1629 74.0695 23.1896 74.0695 24.4673C74.0656 24.6277 74.0503 24.7876 74.0237 24.9459H70.6383C70.7077 25.7897 71.3755 26.2463 72.1127 26.2463C72.6187 26.2463 73.1254 26.018 73.5169 25.7216L74.0008 26.5887C73.494 27.0213 72.7339 27.2957 72.0204 27.2957C70.3856 27.2957 69.3722 26.1321 69.3722 24.7403C69.3722 23.2123 70.4085 22.1629 71.8822 22.1629ZM75.083 22.2764H76.3033V24.1475H76.9023L78.0998 22.2771H79.4582L77.8922 24.6034V24.6268L79.6422 27.1581H78.215L76.9253 25.1742H76.2811V27.1581H75.0593V22.2764H75.0822H75.083ZM47.2196 26.2236C48.0255 26.2236 48.6933 25.6074 48.6933 24.6949C48.6933 23.8051 48.0255 23.1662 47.2189 23.1662C46.4137 23.1662 45.7688 23.7831 45.7688 24.6949C45.7688 25.6074 46.413 26.2236 47.2196 26.2236ZM61.9343 24.1022C61.9343 23.4633 61.4963 23.0755 60.9437 23.0755C60.3225 23.0755 59.8615 23.486 59.7463 24.1022H61.9343ZM72.8263 24.1022C72.8263 23.4633 72.389 23.0755 71.8364 23.0755C71.2137 23.0755 70.7535 23.486 70.6383 24.1022H72.8263Z" fill="#6F8BB5"/>
<path d="M56.4074 5.55527V17.0757C56.4084 17.1179 56.4008 17.1598 56.3849 17.1989C56.3691 17.2381 56.3454 17.2736 56.3153 17.3035C56.2852 17.3333 56.2493 17.3568 56.2098 17.3724C56.1702 17.3881 56.1279 17.3957 56.0854 17.3948H53.7134C53.6709 17.3957 53.6285 17.3881 53.589 17.3724C53.5495 17.3568 53.5136 17.3333 53.4835 17.3035C53.4534 17.2736 53.4297 17.2381 53.4139 17.1989C53.398 17.1598 53.3904 17.1179 53.3913 17.0757V5.55527C53.3904 5.51311 53.398 5.47118 53.4139 5.43203C53.4297 5.39288 53.4534 5.35732 53.4835 5.3275C53.5136 5.29768 53.5495 5.27421 53.589 5.25852C53.6285 5.24283 53.6709 5.23524 53.7134 5.23621H56.0854C56.1279 5.23524 56.1702 5.24283 56.2098 5.25852C56.2493 5.27421 56.2852 5.29768 56.3153 5.3275C56.3454 5.35732 56.3691 5.39288 56.3849 5.43203C56.4008 5.47118 56.4084 5.51311 56.4074 5.55527ZM74.9219 5.23621C75.0143 5.23621 75.1295 5.28159 75.244 5.37305C75.3134 5.44112 75.3134 5.55527 75.2905 5.64674L71.3755 17.1898C71.3517 17.2496 71.3106 17.301 71.2574 17.3376C71.2041 17.3742 71.1411 17.3943 71.0763 17.3955H68.9578C68.8196 17.3955 68.7044 17.3267 68.6586 17.1898L66.3776 10.4604L64.0979 17.1891C64.0742 17.2489 64.0331 17.3003 63.9798 17.3369C63.9266 17.3735 63.8636 17.3936 63.7988 17.3948H61.6802C61.5421 17.3948 61.4268 17.3267 61.381 17.1891L57.466 5.64603C57.4431 5.55527 57.4431 5.46381 57.5118 5.37305C57.5583 5.28159 57.6736 5.23621 57.7652 5.23621H60.4134C60.5515 5.23621 60.6667 5.32696 60.7133 5.46381L62.8082 12.2847L65.1114 5.46381C65.1352 5.40407 65.1763 5.35266 65.2295 5.31606C65.2828 5.27946 65.3458 5.25932 65.4106 5.25819H67.2758C67.4139 5.25819 67.5292 5.32696 67.575 5.46381L69.8782 12.2847L71.9738 5.46381C71.9926 5.39919 72.0318 5.34223 72.0857 5.30128C72.1395 5.26032 72.2052 5.23752 72.273 5.23621H74.9212H74.9219ZM78.9286 5.23621C79.0896 5.23621 79.2278 5.37305 79.2507 5.55527V17.0757C79.2516 17.1179 79.244 17.1598 79.2281 17.1989C79.2123 17.2381 79.1886 17.2736 79.1585 17.3035C79.1284 17.3333 79.0925 17.3568 79.053 17.3724C79.0135 17.3881 78.9712 17.3957 78.9286 17.3948H76.5567C76.5141 17.3957 76.4718 17.3881 76.4323 17.3724C76.3927 17.3568 76.3568 17.3333 76.3267 17.3035C76.2966 17.2736 76.2729 17.2381 76.2571 17.1989C76.2413 17.1598 76.2336 17.1179 76.2346 17.0757V5.55527C76.2336 5.51311 76.2413 5.47118 76.2571 5.43203C76.2729 5.39288 76.2966 5.35732 76.3267 5.3275C76.3568 5.29768 76.3927 5.27421 76.4323 5.25852C76.4718 5.24283 76.5141 5.23524 76.5567 5.23621H78.9286ZM52.0093 16.9849C52.1474 17.1445 52.0322 17.3721 51.8246 17.3721H48.923C48.8659 17.3736 48.8092 17.362 48.7573 17.3383C48.7054 17.3146 48.6598 17.2793 48.6239 17.2352L48.1408 16.6425C47.1273 17.2806 45.9291 17.6692 44.663 17.6692C41.1173 17.6692 38.2386 14.8174 38.2386 11.3041C38.2386 7.79086 41.1173 4.93912 44.663 4.93912C48.2095 4.93912 51.0881 7.79086 51.0881 11.3041C51.0881 12.5591 50.7195 13.7454 50.0747 14.7486L52.0093 16.9842V16.9849ZM27.7603 22.5736C28.3594 22.8019 28.5899 23.691 28.6357 24.0788C28.728 24.7865 28.5212 25.0602 28.2907 25.0602C28.0602 25.0602 27.7374 24.7865 27.3925 24.2391C27.0468 23.691 26.9086 23.0756 27.0933 22.7558C27.2078 22.5502 27.4612 22.4594 27.7611 22.5736H27.7603ZM24.2604 25.1516C24.629 25.1516 25.0434 25.3111 25.412 25.6302C26.1256 26.2237 26.3332 26.9079 25.9646 27.4099C25.757 27.6609 25.412 27.8204 25.0205 27.8204C24.629 27.8204 24.2146 27.6836 23.9383 27.4326C23.2935 26.8852 23.1095 25.972 23.5232 25.4707C23.685 25.2651 23.9383 25.1516 24.2604 25.1516ZM16.2013 31.7442C7.45008 31.7442 0.35791 24.7177 0.35791 16.049C0.35791 7.38033 7.45079 0.354492 16.2006 0.354492C24.9511 0.354492 32.044 7.38104 32.044 16.049C32.044 18.9915 31.2152 21.7525 29.8109 24.1022C29.7644 24.1703 29.6492 24.1476 29.6263 24.0562C29.0737 20.2011 26.7018 18.079 23.2477 17.4408C22.9478 17.3948 22.902 17.2125 23.2935 17.1672C24.3528 17.0757 25.8493 17.0984 26.6324 17.2352C26.6782 16.8474 26.7018 16.4369 26.7018 16.0263C26.7018 10.3001 22.0037 5.64603 16.2235 5.64603C10.444 5.64603 5.74592 10.3001 5.74592 16.0263C5.74592 21.7525 10.444 26.4066 16.2242 26.4066H16.7073C16.5432 25.4804 16.4737 24.5402 16.4998 23.6002C16.5234 22.9614 16.6615 22.8699 16.9378 23.3719C18.3886 25.8585 20.4613 28.0941 24.5138 28.984C27.8298 29.7143 31.1457 30.558 34.7151 35.0519C35.0372 35.4397 34.5541 35.8503 34.1855 35.5312C30.5474 32.337 27.2314 31.2876 24.2146 31.2876C20.8292 31.311 18.5267 31.7442 16.2006 31.7442H16.2013ZM46.2519 14.4296L44.9851 12.9009C44.8477 12.7414 44.9629 12.4904 45.1698 12.4904H47.8409C47.979 12.1252 48.0484 11.7147 48.0484 11.3041C48.0484 9.41101 46.6205 7.76817 44.663 7.76817C42.7062 7.76817 41.2776 9.41101 41.2776 11.3041C41.2776 13.1973 42.7062 14.8174 44.663 14.8174C45.2156 14.8401 45.7688 14.6806 46.2519 14.4296Z" fill="#6F8BB5"/>
</svg>
