<svg width="92" height="26" viewBox="0 0 92 26" fill="none" xmlns="http://www.w3.org/2000/svg">
<path fill-rule="evenodd" clip-rule="evenodd" d="M66.3562 11.7461V25.9999H74.2872V17.5532H83.2757C87.0588 17.5252 90.2723 15.1123 91.4841 11.7461H66.3562Z" fill="#6F8BB5"/>
<path fill-rule="evenodd" clip-rule="evenodd" d="M65.2988 0C65.7608 5.82617 71.2812 10.4264 78.0233 10.4264C78.0453 10.4264 91.8137 10.4264 91.8137 10.4264C91.9155 9.89206 91.9687 9.34057 91.9687 8.77665C91.9687 3.95039 88.0689 0.0357037 83.2446 0.000242834L65.2988 0Z" fill="#6F8BB5"/>
<path fill-rule="evenodd" clip-rule="evenodd" d="M53.5609 10.2878L53.5671 10.2745L53.568 10.2747C53.6493 10.129 53.8051 10.0305 53.984 10.0305C54.2423 10.0305 54.4526 10.2361 54.4596 10.4923L54.4598 10.4924V25.868H62.3909V0H54.4598C53.4541 0.033424 52.3178 0.770311 51.8953 1.67486L45.5837 15.1892C45.5681 15.2444 45.5438 15.296 45.5122 15.3423L45.5101 15.3468L45.5093 15.3465C45.4138 15.4838 45.2548 15.5736 45.0748 15.5736C44.7827 15.5736 44.546 15.3372 44.546 15.0457V0H36.615V25.868H44.546V25.8651C45.5408 25.8132 46.6504 25.0846 47.0667 24.1932L53.5447 10.3226C53.5496 10.3107 53.5551 10.2991 53.5609 10.2878Z" fill="#6F8BB5"/>
<path fill-rule="evenodd" clip-rule="evenodd" d="M23.9455 10.7299L19.3102 25.868H13.6048L8.96664 10.7207C8.92192 10.4782 8.70903 10.2944 8.45316 10.2944C8.1648 10.2944 7.93103 10.5278 7.93103 10.8157C7.93103 10.8179 7.93105 10.8201 7.93108 10.8223L7.93103 25.868H0V0H6.80747H8.83487C10.2942 0 11.8235 1.13078 12.2499 2.52349L16.1098 15.1289C16.3018 15.7561 16.6134 15.7554 16.8052 15.1289L20.6651 2.52349C21.0918 1.1298 22.6206 0 24.0801 0L26.1069 0H32.9138V25.868H24.9828V10.8223C24.9827 10.8201 24.9828 10.8179 24.9828 10.8157C24.9828 10.5278 24.749 10.2944 24.4606 10.2944C24.2015 10.2944 23.9865 10.4828 23.9455 10.7299Z" fill="#6F8BB5"/>
</svg>
